<?xml version="1.0" encoding="iso-8859-1"?>
<!-- Generator: Adobe Illustrator 16.0.0, SVG Export Plug-In . SVG Version: 6.00 Build 0)  -->
<!DOCTYPE svg PUBLIC "-//W3C//DTD SVG 1.1//EN" "http://www.w3.org/Graphics/SVG/1.1/DTD/svg11.dtd">
<svg version="1.1" id="Layer_1" xmlns="http://www.w3.org/2000/svg" xmlns:xlink="http://www.w3.org/1999/xlink" x="0px" y="0px"
	 width="595.28px" height="841.89px" viewBox="0 0 595.28 841.89" style="enable-background:new 0 0 595.28 841.89;"
	 xml:space="preserve">
<g>
	<path style="display:none;fill-rule:evenodd;clip-rule:evenodd;fill:#FEFEFE;" d="M2.106,640.165c0-196.942,0-393.958,0-590.945
		c197.041,0,394.054,0,591.068,0c0,196.959,0,393.891,0,590.945C396.143,640.165,199.111,640.165,2.106,640.165z M269.653,99.65
		c-2.142,3.225-4.41,6.311-6.335,9.598c-6.58,11.24-13.01,22.568-19.553,33.83c-7.721,13.286-15.959,26.297-21.628,40.67
		c-2.412,6.117-4.845,12.126-11.543,15.019c-1.557,0.672-2.783,2.155-4.094,3.339c-12.673,11.428-21.401,25.734-29.384,40.554
		c-3.004,5.58-5.713,11.319-8.605,17.085c-0.35-0.184-0.702-0.33-1.012-0.539c-11.764-7.915-21.537-18.026-30.391-28.907
		c-14.679-18.045-27.065-37.648-37.864-58.275c-3.083-5.888-6.987-11.333-12.469-15.42c-5.973-4.455-13.022-3.699-16.747,2.702
		c-2.457,4.222-4.159,9.108-5.153,13.915c-2.808,13.547-1.854,27.149,0.413,40.717c3.816,22.837,11.429,44.21,24.096,63.689
		c2.237,3.438,4.38,6.935,6.567,10.405c-2.014-0.184-3.347-0.936-4.759-1.476c-7.472-2.856-15.569,1.993-14.962,11.37
		c0.351,5.412,2.083,10.999,4.356,15.975c7.777,17.037,19.427,31.343,32.771,44.337c1.596,1.555,3.158,3.146,4.823,4.807
		c-1.471,0.819-2.649,1.477-3.828,2.129c-4.695,2.616-8.082,9.045-5.977,15.693c1.358,4.29,3.962,7.644,7.638,10.076
		c8.732,5.782,17.697,10.93,28.975,8.281c0.047,0.329,0.131,0.696,0.146,1.066c0.792,19.174,1.151,38.377,2.516,57.509
		c0.876,12.291,3.033,24.509,4.982,36.699c1.789,11.19,3.838,22.354,6.203,33.438c2.458,11.531,5.298,22.988,8.301,34.391
		c0.563,2.146,2.388,4.219,4.153,5.706c1.497,1.26,2.06,2.233,1.731,4.144c-2.104,12.194-8.776,21.423-19.112,27.664
		c-7.093,4.285-14.893,7.396-22.394,11c-0.467,0.225-1.113,0.286-1.62,0.177c-2.197-0.478-5.155-0.851-5.659,1.422
		c-0.594,2.681,2.557,3.124,4.671,3.792c5.5,1.736,11.065,3.298,16.475,5.281c3.888,1.432,6.669,4.023,6.4,8.76
		c-0.086,1.53,0.313,3.088,0.594,5.534c1.473-1.366,2.415-2.235,3.353-3.109c1.281-1.188,2.484-2.48,3.871-3.532
		c0.823-0.624,2.014-0.743,2.904-1.305c10.434-6.595,21.401-7.865,33.029-3.566c0.853,0.315,2.524,0.025,2.986-0.599
		c0.611-0.827,0.924-2.53,0.473-3.387c-7.331-13.903-10.401-28.766-10.323-43.645c1.749-1.828,3.292-3.145,4.472-4.735
		c3.607-4.853,7.306-9.247,13.244-11.781c12.991-5.55,26.314-9.998,39.851-13.943c10.568-3.078,21.282-5.211,32.269-5.789
		c12.498-0.657,24.999-0.351,37.329,1.818c12.334,2.169,24.836,4.026,36.773,7.637c16.514,4.988,31.908,12.877,46.406,22.307
		c5.93,3.86,5.832,4.017,4.297,10.867c-0.043,0.189-0.158,0.361-0.207,0.553c-3.447,13.337-10.166,24.982-18.617,35.696
		c-1.607,2.042-3.73,3.679-6.387,6.246c2.832,0.387,4.959,0.861,7.098,0.935c5.008,0.169,10.127-0.081,14.721,2.233
		c4.531,2.282,9.027,4.742,13.16,7.661c3.164,2.23,5.348,1.33,6.137-2.573c0.379-1.877,1.201-3.896,2.443-5.304
		c1.068-1.212,2.939-1.984,4.59-2.369c7.299-1.702,14.633-3.267,21.984-4.729c3.42-0.683,6.826-2.535,10.42-0.56
		c0.422,0.23,0.977,0.217,1.471,0.313c0.221-0.273,0.443-0.549,0.668-0.82c-1.711-1.634-3.316-3.396-5.152-4.875
		c-3.803-3.062-7.703-6.009-11.605-8.94c-9.719-7.296-18.002-15.75-22.447-27.368c-1.73-4.525-3.869-8.699-1.986-14.047
		c4.031-11.453,7.877-23.02,10.898-34.769c3.654-14.211,6.662-28.603,9.391-43.021c1.615-8.527,2.246-17.246,3.137-25.901
		c0.588-5.746,0.947-11.524,1.234-17.296c0.469-9.373,0.791-18.753,1.18-28.256c3.439-0.6,7.406-1.181,11.328-1.992
		c10.811-2.236,16.049-10.427,13.193-21.103c-1.195-4.467-3.213-8.718-4.941-13.295c0.934-0.322,2.02-0.688,3.096-1.069
		c16.24-5.75,30.662-14.157,40.904-28.468c3.582-5.003,6.82-10.514,3.672-16.797c-1.689-3.377-4.389-6.446-7.229-8.994
		c-2.621-2.354-6.035-3.828-9.117-5.701c0.42-0.993,0.779-2.109,1.338-3.114c9.922-17.924,18.191-36.574,23.773-56.302
		c5.309-18.762,9.066-37.81,7.963-57.483c-0.404-7.157-1.068-14.325-4.279-20.887c-2.801-5.729-6.021-6.644-10.893-2.552
		c-4.801,4.031-9.477,8.384-13.412,13.239c-11.428,14.098-22.363,28.593-33.666,42.792c-13.574,17.049-29.234,31.998-46.234,45.31
		c-3.791-7.576-7.326-15.224-11.361-22.597c-13.672-24.971-31.227-46.781-53.666-64.447c-4.621-3.639-9.086-7.759-15.188-9.009
		c-0.225-0.046-0.396-0.507-0.537-0.798c-0.963-1.997-1.641-4.188-2.902-5.972c-9.717-13.77-19.268-27.669-29.424-41.111
		c-8.861-11.733-17.504-23.709-28.275-33.881c-0.602-0.568-0.77-1.595-1.155-2.44c4.934-1.644,6.849-3.222,6.032-5.852
		c-0.843-2.705,0.489-3.888,1.978-5.49c2.696-2.905,2.847-6.356,1.413-9.862c-1.498-3.659-3.599-7.014-7.961-7.421
		c-6.604-0.616-12.734,1.353-18.439,4.504c-2.821,1.557-3.83,4.418-2.874,7.549c0.731,2.395,1.925,4.646,2.859,6.984
		c0.313,0.78,0.739,1.667,0.632,2.438c-0.459,3.315,0.254,4.822,3.301,6.098C266.712,98.693,268.122,99.112,269.653,99.65z
		 M155.708,162.032c0.491-1.016,0.7-1.459,0.919-1.896c2.32-4.657,3.98-9.536,2.834-14.752c-0.922-4.193-2.487-8.246-3.737-12.369
		c-1.391-4.587-3.333-9.102-3.978-13.792c-0.93-6.751,2.373-12.571,5.64-18.256c0.477-0.826,0.201-2.084,0.272-3.143
		c-1.167,0.133-2.492-0.031-3.458,0.482c-0.968,0.514-1.682,1.633-2.327,2.607c-5.943,8.964-7.354,18.479-3.409,28.639
		c1.706,4.396,3.887,8.702,4.864,13.26C154.594,148.724,154.872,154.849,155.708,162.032z M222.289,615.125
		c3.428,2.667,6.55,3.217,9.747,2.886c5.875-0.609,9.074-4.667,11.334-9.6c2.18-4.757,5.432-8.525,10.26-10.481
		c3.135-1.271,6.628-1.628,9.89-2.629c1.152-0.354,2.095-1.404,3.131-2.133c-0.966-0.933-1.84-2.002-2.936-2.742
		c-0.563-0.379-1.546-0.337-2.293-0.213c-2.412,0.401-4.86,0.741-7.192,1.439c-7.965,2.394-13.195,7.917-16.583,15.265
		c-1.494,3.238-3.846,5.06-7.201,5.896C228.003,613.423,225.597,614.179,222.289,615.125z M70.596,464.283
		c-0.234,0.059-0.468,0.115-0.701,0.174c1.079,4.852,2.032,9.736,3.343,14.525c0.258,0.944,1.899,1.512,2.9,2.252
		c0.658-1.166,1.415-2.289,1.922-3.518c0.18-0.436-0.193-1.141-0.404-1.691c-2.375-6.172-1.905-12.52-1.385-18.929
		c0.718-8.833,0.316-17.55-4.753-25.32c-1.176-1.804-2.23-4.882-4.923-3.395c-2.521,1.392-0.322,3.779,0.588,5.382
		c3.109,5.486,4.397,11.322,4.097,17.561C71.073,455.646,70.825,459.964,70.596,464.283z M421.383,175.156
		c0.379,0.157,0.758,0.312,1.137,0.47c2.537-0.861,3.701-3.148,5.041-5.25c2.887-4.537,5.576-9.217,8.703-13.58
		c3.363-4.69,4.926-9.761,4.51-15.455c-0.135-1.835,0.438-4.59-2.426-4.506c-2.703,0.08-2.283,2.755-2.367,4.633
		c-0.207,4.747-1.654,8.916-4.527,12.812c-3.184,4.315-6.068,8.9-8.594,13.629C421.746,169.991,421.838,172.72,421.383,175.156z
		 M532.895,513.261c0.271,0.067,0.541,0.135,0.809,0.199c3.729-4.675,5.277-10.035,4.197-16.037
		c-1.348-7.467-6.07-12.867-11.43-17.794c-1.516-1.39-3.098-2.762-4.848-3.813c-0.729-0.441-1.971-0.028-2.986-0.006
		c0.158,0.898,0.021,2.025,0.521,2.648c1.775,2.221,3.66,4.381,5.701,6.361c5.979,5.805,9.176,12.684,8.584,21.127
		C533.271,508.386,533.082,510.825,532.895,513.261z M355.305,622.057c3.193-5.623,2.486-16.567-1.209-18.423
		C354.514,610.005,354.908,616.032,355.305,622.057z"/>
	<path style="fill-rule:evenodd;clip-rule:evenodd;fill:#080804;" d="M269.653,99.65c-1.532-0.538-2.941-0.957-4.289-1.522
		c-3.046-1.276-3.76-2.783-3.301-6.098c0.106-0.772-0.32-1.659-0.632-2.438c-0.934-2.338-2.128-4.589-2.859-6.984
		c-0.956-3.131,0.053-5.992,2.874-7.549c5.706-3.151,11.835-5.12,18.439-4.504c4.362,0.407,6.464,3.762,7.961,7.421
		c1.434,3.506,1.283,6.958-1.413,9.862c-1.489,1.602-2.821,2.786-1.978,5.49c0.817,2.629-1.098,4.208-6.032,5.852
		c0.385,0.845,0.553,1.872,1.155,2.44c10.771,10.172,19.414,22.148,28.275,33.881c10.156,13.442,19.707,27.341,29.424,41.111
		c1.262,1.784,1.939,3.975,2.902,5.972c0.141,0.292,0.313,0.752,0.537,0.798c6.102,1.25,10.566,5.37,15.188,9.009
		c22.439,17.666,39.994,39.477,53.666,64.447c4.035,7.373,7.57,15.021,11.361,22.597c17-13.312,32.66-28.261,46.234-45.31
		c11.303-14.199,22.238-28.694,33.666-42.792c3.936-4.855,8.611-9.208,13.412-13.239c4.871-4.092,8.092-3.177,10.893,2.552
		c3.211,6.562,3.875,13.73,4.279,20.887c1.104,19.673-2.654,38.721-7.963,57.483c-5.582,19.728-13.852,38.378-23.773,56.302
		c-0.559,1.005-0.918,2.121-1.338,3.114c3.082,1.873,6.496,3.347,9.117,5.701c2.84,2.548,5.539,5.617,7.229,8.994
		c3.148,6.283-0.09,11.793-3.672,16.797c-10.242,14.311-24.664,22.719-40.904,28.468c-1.076,0.381-2.162,0.747-3.096,1.069
		c1.729,4.578,3.746,8.828,4.941,13.295c2.855,10.675-2.383,18.866-13.193,21.103c-3.922,0.811-7.889,1.392-11.328,1.992
		c-0.389,9.503-0.711,18.883-1.18,28.256c-0.287,5.771-0.646,11.55-1.234,17.296c-0.891,8.655-1.521,17.374-3.137,25.901
		c-2.729,14.418-5.736,28.81-9.391,43.021c-3.021,11.749-6.867,23.315-10.898,34.769c-1.883,5.348,0.256,9.521,1.986,14.047
		c4.445,11.618,12.729,20.072,22.447,27.368c3.902,2.932,7.803,5.879,11.605,8.94c1.836,1.479,3.441,3.241,5.152,4.875
		c-0.225,0.271-0.447,0.547-0.668,0.82c-0.494-0.097-1.049-0.083-1.471-0.313c-3.594-1.976-7-0.123-10.42,0.56
		c-7.352,1.463-14.686,3.027-21.984,4.729c-1.65,0.385-3.521,1.157-4.59,2.369c-1.242,1.408-2.064,3.427-2.443,5.304
		c-0.789,3.903-2.973,4.804-6.137,2.573c-4.133-2.919-8.629-5.379-13.16-7.661c-4.594-2.314-9.713-2.064-14.721-2.233
		c-2.139-0.073-4.266-0.548-7.098-0.935c2.656-2.567,4.779-4.204,6.387-6.246c8.451-10.714,15.17-22.359,18.617-35.696
		c0.049-0.191,0.164-0.363,0.207-0.553c1.535-6.851,1.633-7.007-4.297-10.867c-14.498-9.43-29.893-17.318-46.406-22.307
		c-11.938-3.61-24.439-5.468-36.773-7.637c-12.33-2.169-24.832-2.476-37.329-1.818c-10.987,0.578-21.7,2.711-32.269,5.789
		c-13.537,3.945-26.86,8.394-39.851,13.943c-5.938,2.534-9.637,6.929-13.244,11.781c-1.18,1.591-2.723,2.907-4.472,4.735
		c-0.078,14.879,2.992,29.741,10.323,43.645c0.451,0.856,0.138,2.56-0.473,3.387c-0.462,0.624-2.133,0.914-2.986,0.599
		c-11.628-4.299-22.595-3.028-33.029,3.566c-0.89,0.562-2.081,0.681-2.904,1.305c-1.387,1.052-2.589,2.344-3.871,3.532
		c-0.938,0.874-1.879,1.743-3.353,3.109c-0.28-2.446-0.68-4.004-0.594-5.534c0.27-4.736-2.512-7.328-6.4-8.76
		c-5.41-1.983-10.976-3.545-16.475-5.281c-2.114-0.668-5.265-1.111-4.671-3.792c0.503-2.272,3.462-1.899,5.659-1.422
		c0.507,0.109,1.153,0.048,1.62-0.177c7.501-3.604,15.301-6.715,22.394-11c10.336-6.241,17.008-15.47,19.112-27.664
		c0.329-1.91-0.234-2.884-1.731-4.144c-1.765-1.487-3.59-3.561-4.153-5.706c-3.003-11.402-5.843-22.859-8.301-34.391
		c-2.364-11.084-4.414-22.247-6.203-33.438c-1.95-12.19-4.106-24.408-4.982-36.699c-1.365-19.132-1.724-38.334-2.516-57.509
		c-0.015-0.37-0.099-0.738-0.146-1.066c-11.278,2.649-20.243-2.499-28.975-8.281c-3.676-2.433-6.279-5.786-7.638-10.076
		c-2.104-6.648,1.282-13.077,5.977-15.693c1.178-0.653,2.357-1.31,3.828-2.129c-1.665-1.661-3.228-3.252-4.823-4.807
		c-13.344-12.994-24.993-27.3-32.771-44.337c-2.273-4.977-4.005-10.563-4.356-15.975c-0.606-9.377,7.491-14.226,14.962-11.37
		c1.413,0.541,2.745,1.292,4.759,1.476c-2.187-3.47-4.33-6.967-6.567-10.405c-12.667-19.479-20.279-40.852-24.096-63.689
		c-2.267-13.568-3.22-27.169-0.413-40.717c0.995-4.806,2.696-9.693,5.153-13.915c3.725-6.401,10.774-7.157,16.747-2.702
		c5.481,4.087,9.385,9.532,12.469,15.42c10.799,20.627,23.185,40.23,37.864,58.275c8.854,10.881,18.626,20.993,30.391,28.907
		c0.311,0.208,0.663,0.355,1.012,0.539c2.892-5.766,5.601-11.505,8.605-17.085c7.982-14.82,16.711-29.126,29.384-40.554
		c1.312-1.184,2.537-2.667,4.094-3.339c6.698-2.892,9.132-8.901,11.543-15.019c5.669-14.373,13.908-27.384,21.628-40.67
		c6.542-11.262,12.973-22.59,19.553-33.83C265.243,105.961,267.512,102.875,269.653,99.65z M267.49,90.571
		c0.173,0.994,0.002,2.489,0.581,2.88c1.549,1.047,3.422,2.229,5.157,2.218c2.018-0.014,4.027-1.242,5.99-1.924
		c0.05-4.677,0.05-4.677,3.467-9.165c2.008-2.637-0.017-8.539-3.324-8.71c-3.108-0.16-6.271,0.759-9.41,1.203
		c-1.202,0.347-2.454,0.579-3.601,1.061c-3.45,1.446-3.688,2.066-2.143,5.545C265.238,86.005,266.391,88.275,267.49,90.571z
		 M285.095,152.515c-8.542,1.984-17.185,2.861-25.948,2.388c-2.065-0.111-4.127-0.319-5.525-0.431
		c2.021,5.559,4.036,11.1,5.92,16.281c3.308-4.228,6.917-8.838,10.662-13.625c4.218,2.268,6.191,6.612,8.874,10.64
		c2.175-5.078,4.277-9.987,6.379-14.898c0.067-0.221,0.135-0.441,0.204-0.661C285.472,152.312,285.284,152.414,285.095,152.515z
		 M254.408,149.849c7.14-0.057,14.325,0.374,21.408-0.286c10.36-0.964,19.548-5.245,27.676-11.797
		c-2.473-3.148-4.883-6.21-7.33-9.325c-1.488,3.22-4.505,4.196-7.42,5.237c-9.548,3.416-19.487,4.194-29.524,4.27
		c-1.752-0.23-3.5-0.547-5.26-0.641c-0.636-0.034-1.613,0.28-1.902,0.759c-2.253,3.713-4.377,7.505-6.524,11.243
		C248.64,149.498,251.523,149.674,254.408,149.849z M184.053,591.241c-0.151-3.229-0.367-6.457-0.434-9.688
		c-0.043-2.102,0.966-4.856-0.025-6.134c-1.047-1.351-3.907-1.288-5.976-1.833c-0.079-0.02-0.183,0.06-0.005-0.002
		c-0.69,2.557-1.164,5.02-2.016,7.343c-3.329,9.084-9.567,15.971-16.93,21.973c-6.76,3.625-13.524,7.248-19.93,10.683
		c6.592,2.563,14.874,3.574,17.797,12.351c10.327-8.141,21.727-11.491,33.966-8.715C188.324,608.45,186.188,599.847,184.053,591.241
		z M405.145,594.627c-4.6,9.363-8.709,19.022-16.635,26.772c9.863-0.036,17.822,3.73,25.43,9.188
		c1.318-4.588,4.523-7.072,8.463-8.72c2.525-1.055,5.072-2.185,7.725-2.792c5.574-1.274,11.219-2.226,17.154-3.367
		c-1.047-0.777-1.922-1.366-2.736-2.034c-4.617-3.8-9.557-7.282-13.725-11.524c-4.008-4.081-7.209-8.95-10.762-13.474
		c-1.574-4.472-3.145-8.945-4.936-14.036c-2.123,1.35-4.199,2.666-5.666,3.599C407.951,583.964,406.547,589.295,405.145,594.627z
		 M233.208,191.572c5.86,0.656,11.707,1.448,17.581,1.942c17.304,1.458,34.602,1.761,51.701-1.896
		c11.404-2.441,22.506-5.942,33.354-10.791c-4.455-5.987-8.752-11.759-12.543-16.853c-3.818,2.718-7.326,5.688-11.254,7.912
		c-9.363,5.295-19.598,8.278-30.119,10.206c-8.327,1.525-16.697,2.492-25.216,1.326c-6.419-0.879-12.896-1.333-19.348-1.975
		c-2.736-0.843-5.472-1.687-8.197-2.527c-1.456,3.502-3.099,7.451-4.804,11.547C227.388,190.843,230.299,191.207,233.208,191.572z
		 M453.688,410.273c1.24-0.224,2.5-0.378,3.721-0.688c5.99-1.51,10.646-6.188,8.734-13.909c-1.107-4.471-2.996-8.762-4.686-13.075
		c-1.818-4.649-1.4-5.396,3.23-7.375c6.373-2.724,12.813-5.396,18.869-8.735c9.76-5.383,17.977-12.617,23.678-22.386
		c2.9-4.973,2.539-9.93-1.736-13.818c-3.068-2.787-6.717-5.032-10.359-7.064c-4.795-2.676-5.041-2.756-2.598-7.491
		c9.438-18.288,18.355-36.8,23.98-56.689c5.939-20.977,10.035-42.2,7.479-64.165c-0.592-5.087-1.395-10.188-4.648-14.512
		c-0.646,0.327-1.229,0.502-1.656,0.862c-1.656,1.383-3.494,2.632-4.846,4.277c-9.74,11.846-19.531,23.657-29.008,35.715
		c-10.051,12.792-19.873,25.758-31.568,37.145c-3.867,3.764-7.746,7.515-11.617,11.272c-5.975,4.646-11.949,9.293-18.066,14.053
		c16.018,40.674,22.141,83.709,22.715,128.003C448.322,411.182,451.006,410.728,453.688,410.273z M152.255,253.646
		c-0.737-0.778-1.488-1.543-2.21-2.334c-7.537-8.238-15.661-16.021-22.477-24.82c-12.6-16.264-23.428-33.738-33.063-51.962
		c-2.423-4.583-6.016-8.651-9.556-12.511c-4.388-4.783-9.71-3.86-11.88,2.253c-1.998,5.631-3.906,11.612-4.099,17.495
		c-0.333,10.178-0.197,20.532,1.318,30.574c3.978,26.358,14.588,50.356,28.041,73.18c0.541,0.917,1.309,1.943,1.277,2.896
		c-0.039,1.183-0.515,2.645-1.336,3.418c-0.662,0.623-2.915,0.821-3.093,0.483c-1.386-2.614-3.96-2.065-5.986-2.24
		c-4.8-0.417-8.319,1.958-8.016,7.192c0.547,9.431,4.7,17.45,9.51,25.264c8.299,13.485,18.754,25.143,30.137,36.056
		c5.289,5.073,5.021,7.035-1.587,9.647c-8.149,3.224-8.095,11.457-2.837,16.505c4.261,4.089,9.409,6.822,15.126,8.416
		c4.467,0.693,8.936,1.386,13.934,2.163c0.163-22.805,1.626-44.942,5.107-66.899c3.487-21.986,9.28-43.403,16.248-63.852
		C161.769,260.787,157.013,257.215,152.255,253.646z M416.066,570.239c7.531-25.303,14.348-51.615,18.791-78.516
		c3.283-19.911,5.184-39.952,5.725-60.112c0.748-27.758-0.49-55.41-5.252-82.826c-4.346-25.028-10.77-49.412-21.352-72.649
		c-10.531-23.128-24.217-44.07-41.656-62.53c-9.268-9.807-19.477-18.545-30.717-26.055c-1.164-0.78-1.959-2.116-2.719-2.963
		c-5.748,2.21-11.832,4.741-18.047,6.9c-15.678,5.444-31.853,7.96-48.456,7.862c-15.371-0.092-30.593-1.737-45.778-3.954
		c-1.936-0.282-4.647-0.6-5.865,0.435c-5.981,5.075-11.986,10.235-17.225,16.048c-10.247,11.368-17.649,24.708-24.66,38.215
		c-7.85,15.122-12.348,31.444-16.604,47.832c-3.872,14.913-6.82,30.002-8.33,45.345c-1.057,10.726-2.524,21.454-2.808,32.204
		c-0.462,17.513-0.41,35.051,0,52.567c0.306,13.054,1.051,26.14,2.465,39.117c1.314,12.063,3.522,24.052,5.786,35.988
		c3.102,16.35,6.453,32.658,10.073,48.899c1.127,5.063,1.813,10.342,7.408,13.721c3.163,1.907,6.333,3.107,9.666,4.234
		c1.326,0.448,4.583-2.235,4.024-3.261c-1.348-2.474,0.495-3.559,1.808-4.616c1.887-1.521,4.028-2.772,6.175-3.924
		c14.334-7.675,29.786-12.358,45.279-16.974c19.833-5.911,40.017-8.043,60.567-5.584c10.877,1.302,21.754,2.837,32.484,4.989
		c8.754,1.757,17.758,3.552,25.826,7.16c15.041,6.729,30.5,12.953,43.363,23.794c0.738,0.62,2.414,0.34,3.604,0.154
		C411.531,571.452,413.379,570.887,416.066,570.239z M237.391,176.394c14.35,1.043,28.648,4.539,43.015,0.641
		c-3.295-5.198-6.535-10.31-9.831-15.511c-3.471,5.756-7.041,11.395-12.564,16.396c-2.169-6.185-4.147-11.823-5.921-16.886
		C247.373,165.963,242.462,171.095,237.391,176.394z M283.039,176.96c5.705-1.604,11.504-3.233,17.317-4.868
		c-1.869-8.347-6.836-14.597-11.354-21.622c-0.437,1.016-0.69,1.512-0.869,2.035c-1.696,4.959-2.911,10.158-5.224,14.811
		C281.262,170.63,280.65,173.336,283.039,176.96z M304.457,170.068c6.031-2.378,11.486-5.306,15.932-10.214
		c-3.629-4.278-6.217-9.151-10.33-12.949C308.145,154.824,306.365,162.184,304.457,170.068z M301.684,163.588
		c2.027-6.671,4-13.154,6.145-20.196c-0.58-0.772-1.678-2.228-2.77-3.68c-0.789,1.139-1.303,2.456-2.262,3.17
		c-3.346,2.48-6.843,4.753-10.156,7.018c1.529,2.105,3.21,4.258,4.714,6.53C298.857,158.703,300.184,161.091,301.684,163.588z
		 M238.243,168.765c4.94-3.593,13.004-12.391,13.122-14.213c-2.442-0.971-4.836-1.923-7.284-2.897
		c-1.244,2.141-2.452,4.476-3.898,6.652C238.013,161.571,235.873,164.765,238.243,168.765z M285.788,115.728
		c-1.477-1.886-2.965-3.789-4.207-5.375c-3.442,1.59-6.685,3.084-9.167,4.229c2.619,3.479,5.361,7.123,8.125,10.794
		C282.215,122.297,283.985,119.042,285.788,115.728z M265.923,133.342c4.386-0.535,8.676-1.056,12.94-1.575
		c-2.369-4.519-4.545-8.675-6.854-13.078C269.985,123.566,268.022,128.287,265.923,133.342z M265.362,114.396
		c-1.241,2.177-2.471,4.271-3.637,6.4c-2.341,4.275-2.24,4.851,1.33,8.719c2.532-4.889,5.061-9.769,7.583-14.635
		C268.879,114.719,267.227,114.567,265.362,114.396z M288.463,118.858c-2.042,3.967-3.983,7.732-6.245,12.126
		c4.755-1.428,8.635-2.593,12.85-3.857C292.779,124.262,290.673,121.625,288.463,118.858z M267.637,110.642
		c0.257,0.209,0.515,0.42,0.771,0.628c3.637-1.292,7.272-2.585,11.178-3.976c-1.854-2.684-3.463-5.015-5.235-7.583
		C271.935,103.643,269.786,107.142,267.637,110.642z M260.868,133.3c-0.929-2.376-1.647-4.209-2.569-6.563
		c-1.143,2.19-2.015,3.864-3.155,6.051C257.218,132.975,258.803,133.114,260.868,133.3z"/>
	<path style="fill-rule:evenodd;clip-rule:evenodd;fill:#78DDFE;" d="M155.708,162.032c-0.836-7.183-1.114-13.308-2.38-19.222
		c-0.977-4.559-3.158-8.864-4.864-13.26c-3.944-10.16-2.534-19.674,3.409-28.639c0.646-0.974,1.359-2.093,2.327-2.607
		c0.965-0.513,2.291-0.349,3.458-0.482c-0.071,1.058,0.205,2.316-0.272,3.143c-3.267,5.685-6.57,11.505-5.64,18.256
		c0.646,4.691,2.587,9.206,3.978,13.792c1.25,4.124,2.814,8.176,3.737,12.369c1.146,5.217-0.515,10.096-2.834,14.752
		C156.408,160.573,156.199,161.016,155.708,162.032z"/>
	<path style="fill-rule:evenodd;clip-rule:evenodd;fill:#FE8A99;" d="M222.289,615.125c3.309-0.946,5.715-1.702,8.157-2.312
		c3.354-0.837,5.707-2.658,7.201-5.896c3.389-7.348,8.618-12.871,16.583-15.265c2.332-0.698,4.78-1.038,7.192-1.439
		c0.747-0.124,1.73-0.166,2.293,0.213c1.096,0.74,1.97,1.81,2.936,2.742c-1.036,0.729-1.979,1.779-3.131,2.133
		c-3.261,1.001-6.755,1.357-9.89,2.629c-4.828,1.956-8.08,5.725-10.26,10.481c-2.261,4.933-5.459,8.99-11.334,9.6
		C228.839,618.342,225.716,617.792,222.289,615.125z"/>
	<path style="fill-rule:evenodd;clip-rule:evenodd;fill:#FE8A9A;" d="M70.596,464.283c0.229-4.318,0.477-8.637,0.684-12.959
		c0.301-6.238-0.988-12.074-4.097-17.561c-0.91-1.603-3.109-3.99-0.588-5.382c2.692-1.487,3.747,1.591,4.923,3.395
		c5.07,7.771,5.471,16.487,4.753,25.32c-0.52,6.409-0.989,12.757,1.385,18.929c0.21,0.551,0.583,1.256,0.404,1.691
		c-0.507,1.229-1.264,2.352-1.922,3.518c-1.001-0.74-2.642-1.308-2.9-2.252c-1.312-4.789-2.264-9.674-3.343-14.525
		C70.128,464.398,70.362,464.341,70.596,464.283z"/>
	<path style="fill-rule:evenodd;clip-rule:evenodd;fill:#FE8A99;" d="M421.383,175.156c0.455-2.436,0.363-5.165,1.477-7.249
		c2.525-4.729,5.41-9.313,8.594-13.629c2.873-3.896,4.32-8.065,4.527-12.812c0.084-1.877-0.336-4.553,2.367-4.633
		c2.863-0.084,2.291,2.671,2.426,4.506c0.416,5.694-1.146,10.765-4.51,15.455c-3.127,4.363-5.816,9.043-8.703,13.58
		c-1.34,2.102-2.504,4.39-5.041,5.25C422.141,175.468,421.762,175.313,421.383,175.156z"/>
	<path style="fill-rule:evenodd;clip-rule:evenodd;fill:#78DDFE;" d="M532.895,513.261c0.188-2.437,0.377-4.875,0.549-7.314
		c0.592-8.443-2.605-15.322-8.584-21.127c-2.041-1.98-3.926-4.141-5.701-6.361c-0.5-0.623-0.363-1.75-0.521-2.648
		c1.016-0.022,2.258-0.436,2.986,0.006c1.75,1.052,3.332,2.424,4.848,3.813c5.359,4.927,10.082,10.327,11.43,17.794
		c1.08,6.002-0.469,11.362-4.197,16.037C533.436,513.396,533.166,513.329,532.895,513.261z"/>
	<path style="fill-rule:evenodd;clip-rule:evenodd;fill:#FEFA8A;" d="M355.305,622.057c-0.396-6.025-0.791-12.052-1.209-18.423
		C357.791,605.49,358.498,616.434,355.305,622.057z"/>
	<path style="fill-rule:evenodd;clip-rule:evenodd;fill:#FEFEFE;" d="M416.066,570.239c-2.688,0.648-4.535,1.213-6.424,1.502
		c-1.189,0.186-2.865,0.466-3.604-0.154c-12.863-10.841-28.322-17.064-43.363-23.794c-8.068-3.608-17.072-5.403-25.826-7.16
		c-10.73-2.152-21.607-3.688-32.484-4.989c-20.551-2.459-40.734-0.327-60.567,5.584c-15.493,4.615-30.944,9.299-45.279,16.974
		c-2.147,1.151-4.288,2.402-6.175,3.924c-1.313,1.058-3.156,2.143-1.808,4.616c0.559,1.025-2.698,3.709-4.024,3.261
		c-3.333-1.127-6.503-2.327-9.666-4.234c-5.595-3.379-6.28-8.658-7.408-13.721c-3.62-16.241-6.971-32.55-10.073-48.899
		c-2.264-11.937-4.472-23.925-5.786-35.988c-1.415-12.978-2.159-26.063-2.465-39.117c-0.41-17.516-0.462-35.054,0-52.567
		c0.284-10.75,1.751-21.478,2.808-32.204c1.509-15.343,4.458-30.432,8.33-45.345c4.256-16.387,8.754-32.709,16.604-47.832
		c7.011-13.507,14.413-26.848,24.66-38.215c5.239-5.813,11.244-10.974,17.225-16.048c1.218-1.034,3.929-0.717,5.865-0.435
		c15.185,2.216,30.407,3.861,45.778,3.954c16.603,0.099,32.778-2.417,48.456-7.862c6.215-2.159,12.299-4.69,18.047-6.9
		c0.76,0.848,1.555,2.184,2.719,2.963c11.24,7.51,21.449,16.248,30.717,26.055c17.439,18.459,31.125,39.402,41.656,62.53
		c10.582,23.238,17.006,47.622,21.352,72.649c4.762,27.416,6,55.067,5.252,82.826c-0.541,20.16-2.441,40.201-5.725,60.112
		C430.414,518.624,423.598,544.936,416.066,570.239z M359.723,230.249c1.314-0.719,3.193-1.63,0.857-2.994
		c-4.617-2.696-9.291-5.433-14.238-7.402c-6.746-2.684-15.422,0.157-19.75,5.946c-0.813,1.091-1.055,2.612-1.357,3.398
		c3.207,0.373,5.82,0.676,8.432,0.98c1.045,0.748,2.055,2.082,3.145,2.147c6.313,0.377,12.648,0.595,18.975,0.533
		C357.227,232.843,359.529,232.778,359.723,230.249z M278.221,255.893c0.354,0.839,0.48,2.082,1.109,2.441
		c2.123,1.211,4.367,2.275,6.672,3.092c7.129,2.523,14.301,3.071,21.377-0.215c2.256-1.045,4.008-2.55,3.703-5.403
		c0.764-3.243-1.354-4.632-3.771-5.767c-7.291-3.429-14.999-3.351-22.756-2.503c-2.516,0.275-5.082,0.644-7.463,1.446
		c-2.976,1.003-3.251,3.641-0.809,5.625C276.881,255.096,277.573,255.467,278.221,255.893z M249.764,230.745
		c3.697-3.942,3.505-7.054-0.814-10.051c-1.423-0.988-3.088-1.935-4.757-2.21c-10.287-1.699-19.578,0.755-27.769,7.22
		c-1.613,1.271-0.907,2.563,0.234,3.749c1.993,0.984,3.936,2.68,5.985,2.821c7.596,0.522,15.229,0.651,22.846,0.625
		C246.917,232.895,248.339,231.499,249.764,230.745z M359.113,444.329c0.588-0.704,0.771-0.834,0.824-1.003
		c0.141-0.465,0.236-0.941,0.334-1.416c1.93-9.477,4.658-18.646,9.6-27.077c4.195-7.156,7.904-14.662,8.371-23.058
		c0.326-5.809-0.451-11.699-1.068-17.519c-0.107-1.024-2-2.753-2.83-2.621c-1.979,0.309-1.654,2.18-1.363,3.828
		c1.598,8.979,1.271,17.849-2.457,26.281c-2.822,6.376-5.961,12.614-9.156,18.813c-3.326,6.458-3.93,13.304-3.389,20.355
		C358.055,441.912,358.613,442.872,359.113,444.329z M218.065,518.932c-0.302-1.923-0.343-3.057-0.667-4.103
		c-1.488-4.811-4.124-8.864-8.061-12.063c-8.504-6.906-13.086-15.961-14.623-26.706c-0.117-0.819-0.861-1.549-1.313-2.318
		c-0.764,0.646-1.773,1.153-2.218,1.973c-0.43,0.789-0.469,1.919-0.346,2.857c1.316,10.057,5.318,18.792,12.695,25.915
		c4.237,4.085,8.315,8.336,12.47,12.509C216.459,517.456,216.948,517.885,218.065,518.932z"/>
	<path style="fill-rule:evenodd;clip-rule:evenodd;fill:#FEFEFE;" d="M131.522,393.159c-5.717-1.594-10.865-4.327-15.126-8.416
		c-5.258-5.048-5.313-13.281,2.837-16.505c6.608-2.612,6.876-4.575,1.587-9.647c-11.382-10.913-21.837-22.571-30.137-36.056
		c-4.81-7.813-8.962-15.833-9.51-25.264c-0.303-5.233,3.216-7.609,8.016-7.192c2.026,0.174,4.601-0.375,5.986,2.24
		c0.179,0.338,2.431,0.14,3.093-0.483c0.821-0.773,1.298-2.235,1.336-3.418c0.031-0.953-0.736-1.979-1.277-2.896
		c-13.453-22.824-24.063-46.821-28.041-73.18c-1.515-10.042-1.651-20.396-1.318-30.574c0.193-5.883,2.102-11.864,4.099-17.495
		c2.169-6.113,7.492-7.036,11.88-2.253c3.54,3.86,7.133,7.929,9.556,12.511c9.635,18.225,20.464,35.698,33.063,51.962
		c6.816,8.799,14.94,16.582,22.477,24.82c0.722,0.791,1.474,1.556,2.21,2.334c-1.73,3.95-3.63,7.836-5.136,11.87
		c-1.159,3.104-1.914,6.371-2.681,9.602c-0.686,2.89-1.051,5.852-1.727,8.742c-0.54,2.31-1.374,4.549-2.003,6.84
		c-0.932,3.389-1.897,6.772-2.667,10.2c-0.755,3.373-1.137,6.833-1.949,10.19c-1.408,5.827-3.444,11.534-4.428,17.422
		c-0.954,5.722-1.306,11.613-1.241,17.422c0.163,14.561,0.714,29.119,1.101,43.68C131.558,390.792,131.524,391.977,131.522,393.159z
		"/>
	<path style="fill-rule:evenodd;clip-rule:evenodd;fill:#FEFEFE;" d="M440.656,269.636c3.871-3.757,7.75-7.508,11.617-11.272
		c11.695-11.387,21.518-24.353,31.568-37.145c9.477-12.058,19.268-23.869,29.008-35.715c1.352-1.645,3.189-2.894,4.846-4.277
		c0.428-0.359,1.01-0.535,1.656-0.862c3.254,4.324,4.057,9.425,4.648,14.512c2.557,21.965-1.539,43.188-7.479,64.165
		c-5.625,19.89-14.543,38.402-23.98,56.689c-2.443,4.735-2.197,4.815,2.598,7.491c3.643,2.032,7.291,4.277,10.359,7.064
		c4.275,3.889,4.637,8.846,1.736,13.818c-5.701,9.77-13.918,17.003-23.678,22.386c-6.057,3.339-12.496,6.011-18.869,8.735
		c-4.631,1.979-5.049,2.725-3.23,7.375c1.689,4.313,3.578,8.604,4.686,13.075c1.912,7.721-2.744,12.399-8.734,13.909
		c-1.221,0.309-2.48,0.463-3.721,0.688c0.391-1.649,1.01-3.286,1.121-4.956c0.199-3.137-0.158-6.325,0.193-9.438
		c0.523-4.635,2.162-9.237,2.078-13.831c-0.205-11.037,1.203-22.096-0.914-33.138c-1.127-5.859,0.689-12.016-1.211-17.996
		c-0.943-2.963-0.779-6.265-1.281-9.386c-0.699-4.342-1.947-8.632-2.25-12.994c-0.463-6.677-1.93-13.034-4.182-19.3
		C444.91,282.751,442.838,276.172,440.656,269.636z"/>
	<path style="fill-rule:evenodd;clip-rule:evenodd;fill:#E1E1E0;" d="M131.522,393.159c0.002-1.182,0.036-2.366,0.003-3.544
		c-0.387-14.561-0.938-29.119-1.101-43.68c-0.065-5.809,0.287-11.7,1.241-17.422c0.984-5.888,3.02-11.595,4.428-17.422
		c0.812-3.357,1.194-6.817,1.949-10.19c0.77-3.428,1.735-6.812,2.667-10.2c0.63-2.291,1.464-4.53,2.003-6.84
		c0.675-2.89,1.041-5.852,1.727-8.742c0.767-3.231,1.521-6.499,2.681-9.602c1.505-4.034,3.405-7.92,5.136-11.87
		c4.758,3.569,9.514,7.14,14.556,10.924c-6.968,20.449-12.761,41.866-16.248,63.852c-3.481,21.957-4.945,44.094-5.107,66.899
		C140.458,394.544,135.99,393.852,131.522,393.159z"/>
	<path style="fill-rule:evenodd;clip-rule:evenodd;fill:#E1E1E0;" d="M440.656,269.636c2.182,6.537,4.254,13.116,6.586,19.599
		c2.252,6.266,3.719,12.624,4.182,19.3c0.303,4.362,1.551,8.652,2.25,12.994c0.502,3.122,0.338,6.423,1.281,9.386
		c1.9,5.98,0.084,12.137,1.211,17.996c2.117,11.042,0.709,22.101,0.914,33.138c0.084,4.594-1.555,9.195-2.078,13.831
		c-0.352,3.112,0.006,6.3-0.193,9.438c-0.111,1.669-0.73,3.306-1.121,4.956c-2.682,0.455-5.365,0.909-8.383,1.419
		c-0.574-44.294-6.697-87.329-22.715-128.003C428.707,278.929,434.682,274.282,440.656,269.636z"/>
	<path style="fill-rule:evenodd;clip-rule:evenodd;fill:#FC618A;" d="M237.363,181.443c6.452,0.642,12.929,1.096,19.348,1.975
		c8.52,1.167,16.889,0.199,25.216-1.326c10.521-1.928,20.756-4.911,30.119-10.206c3.928-2.224,7.436-5.194,11.254-7.912
		c3.791,5.093,8.088,10.865,12.543,16.853c-10.848,4.849-21.949,8.349-33.354,10.791c-17.1,3.658-34.397,3.355-51.701,1.896
		c-5.874-0.495-11.721-1.286-17.581-1.942C234.594,188.195,235.979,184.819,237.363,181.443z"/>
	<path style="fill-rule:evenodd;clip-rule:evenodd;fill:#FDC588;" d="M420.059,588.677c3.553,4.523,6.754,9.393,10.762,13.474
		c4.168,4.242,9.107,7.725,13.725,11.524c0.814,0.668,1.689,1.257,2.736,2.034c-5.936,1.142-11.58,2.093-17.154,3.367
		c-2.652,0.607-5.199,1.737-7.725,2.792c-3.939,1.647-7.145,4.132-8.463,8.72c-7.607-5.458-15.566-9.225-25.43-9.188
		c7.926-7.75,12.035-17.409,16.635-26.772c1.029,0.443,2.057,1.269,3.088,1.271C413.588,595.903,417.482,593.328,420.059,588.677z"
		/>
	<path style="fill-rule:evenodd;clip-rule:evenodd;fill:#FDC488;" d="M184.053,591.241c2.135,8.606,4.271,17.209,6.447,25.978
		c-12.239-2.776-23.639,0.574-33.966,8.715c-2.923-8.776-11.205-9.788-17.797-12.351c6.406-3.435,13.17-7.058,19.93-10.683
		c2.977,1.936,5.814-0.144,7.942-1.234c5.172-2.651,11.346-3.935,14.882-9.329C181.914,591.689,183.178,591.591,184.053,591.241z"/>
	<path style="fill-rule:evenodd;clip-rule:evenodd;fill:#FC618B;" d="M259.218,137.948c10.037-0.076,19.976-0.854,29.524-4.27
		c2.915-1.041,5.932-2.018,7.42-5.237c2.447,3.115,4.857,6.177,7.33,9.325c-8.128,6.552-17.316,10.833-27.676,11.797
		c-7.083,0.659-14.268,0.229-21.407,0.286c0.484-1.373,0.909-2.771,1.463-4.113C256.95,143.123,258.099,140.541,259.218,137.948z"/>
	<path style="fill-rule:evenodd;clip-rule:evenodd;fill:#F7FA03;" d="M237.391,176.394c5.071-5.299,9.982-10.43,14.699-15.36
		c1.774,5.063,3.752,10.702,5.921,16.886c5.523-5.001,9.093-10.64,12.564-16.396c3.295,5.201,6.536,10.313,9.831,15.511
		C266.039,180.933,251.74,177.437,237.391,176.394z"/>
	<path style="fill-rule:evenodd;clip-rule:evenodd;fill:#DFAE79;" d="M184.053,591.241c-0.875,0.351-2.139,0.448-2.563,1.096
		c-3.536,5.395-9.71,6.678-14.882,9.329c-2.127,1.091-4.965,3.17-7.942,1.234c7.362-6.002,13.601-12.889,16.93-21.973
		c0.852-2.323,1.325-4.786,2.016-7.343c-0.178,0.062-0.074-0.018,0.005,0.002c2.069,0.545,4.929,0.482,5.976,1.833
		c0.992,1.277-0.018,4.032,0.025,6.134C183.686,584.784,183.901,588.011,184.053,591.241z"/>
	<path style="fill-rule:evenodd;clip-rule:evenodd;fill:#F8FB03;" d="M283.039,176.96c-2.389-3.625-1.776-6.331-0.129-9.645
		c2.313-4.653,3.527-9.852,5.224-14.811c0.178-0.522,0.432-1.019,0.869-2.035c4.518,7.025,9.484,13.275,11.354,21.622
		C294.542,173.728,288.743,175.357,283.039,176.96z"/>
	<path style="fill-rule:evenodd;clip-rule:evenodd;fill:#F9F7D4;" d="M285.457,152.873c-2.102,4.909-4.204,9.818-6.379,14.896
		c-2.683-4.028-4.656-8.373-8.874-10.64c-3.745,4.786-7.354,9.397-10.662,13.625c-1.884-5.182-3.899-10.723-5.92-16.281
		c1.397,0.111,3.459,0.32,5.525,0.431c8.764,0.473,17.407-0.404,25.948-2.388C285.213,152.635,285.336,152.755,285.457,152.873z"/>
	<path style="fill-rule:evenodd;clip-rule:evenodd;fill:#DFAE79;" d="M420.059,588.677c-2.576,4.65-6.471,7.226-11.826,7.221
		c-1.031-0.002-2.059-0.827-3.088-1.271c1.402-5.332,2.807-10.663,4.313-16.388c1.467-0.933,3.543-2.249,5.666-3.599
		C416.914,579.732,418.484,584.206,420.059,588.677z"/>
	<path style="fill-rule:evenodd;clip-rule:evenodd;fill:#F8FB03;" d="M304.457,170.068c1.908-7.885,3.688-15.244,5.602-23.163
		c4.113,3.798,6.701,8.671,10.33,12.949C315.943,164.762,310.488,167.69,304.457,170.068z"/>
	<path style="fill-rule:evenodd;clip-rule:evenodd;fill:#F9F7D4;" d="M301.684,163.588c-1.5-2.497-2.826-4.885-4.329-7.159
		c-1.503-2.271-3.185-4.425-4.714-6.53c3.313-2.264,6.81-4.537,10.156-7.018c0.959-0.714,1.473-2.031,2.262-3.17
		c1.092,1.452,2.189,2.907,2.77,3.68C305.684,150.434,303.711,156.917,301.684,163.588z"/>
	<path style="fill-rule:evenodd;clip-rule:evenodd;fill:#FBD6DF;" d="M269.951,77.074c3.139-0.444,6.302-1.363,9.41-1.203
		c3.307,0.171,5.332,6.073,3.324,8.71c-3.417,4.487-3.417,4.487-3.467,9.165c-1.963,0.682-3.972,1.911-5.99,1.924
		c-1.735,0.011-3.608-1.171-5.157-2.218c-0.579-0.391-0.408-1.887-0.581-2.88c0.949,0.467,1.873,0.994,2.852,1.388
		c2.28,0.924,4.584,0.476,5.665-1.567c0.699-1.324,0.631-3.681-0.106-5.011C274.256,82.422,271.973,79.821,269.951,77.074z"/>
	<path style="fill-rule:evenodd;clip-rule:evenodd;fill:#E1BFC8;" d="M269.951,77.074c2.022,2.747,4.305,5.348,5.949,8.306
		c0.737,1.33,0.805,3.687,0.106,5.011c-1.081,2.043-3.385,2.491-5.665,1.567c-0.979-0.394-1.903-0.921-2.852-1.388
		c-1.099-2.296-2.251-4.565-3.283-6.892c-1.545-3.479-1.307-4.099,2.143-5.545C267.497,77.653,268.749,77.42,269.951,77.074z"/>
	<path style="fill-rule:evenodd;clip-rule:evenodd;fill:#DEDCBE;" d="M238.243,168.765c-2.37-4-0.23-7.194,1.939-10.458
		c1.446-2.177,2.655-4.511,3.898-6.652c2.448,0.974,4.842,1.927,7.284,2.897C251.247,156.375,243.184,165.172,238.243,168.765z"/>
	<path style="fill-rule:evenodd;clip-rule:evenodd;fill:#F9F7D4;" d="M285.788,115.728c-1.803,3.313-3.572,6.569-5.248,9.648
		c-2.764-3.672-5.506-7.315-8.125-10.794c2.482-1.146,5.724-2.64,9.167-4.229C282.823,111.939,284.311,113.842,285.788,115.728z"/>
	<path style="fill-rule:evenodd;clip-rule:evenodd;fill:#E0577C;" d="M237.363,181.443c-1.385,3.376-2.77,6.751-4.155,10.129
		c-2.91-0.365-5.82-0.729-8.846-1.109c1.705-4.097,3.348-8.045,4.804-11.547C231.891,179.756,234.627,180.6,237.363,181.443z"/>
	<path style="fill-rule:evenodd;clip-rule:evenodd;fill:#E0577C;" d="M259.218,137.948c-1.119,2.593-2.268,5.175-3.346,7.787
		c-0.555,1.343-0.979,2.74-1.463,4.113c-2.886-0.175-5.77-0.351-8.877-0.54c2.147-3.738,4.271-7.53,6.524-11.243
		c0.289-0.479,1.267-0.792,1.902-0.759C255.718,137.401,257.466,137.718,259.218,137.948z"/>
	<path style="fill-rule:evenodd;clip-rule:evenodd;fill:#F6F906;" d="M265.923,133.342c2.099-5.056,4.062-9.776,6.087-14.653
		c2.309,4.403,4.484,8.559,6.854,13.078C274.6,132.287,270.31,132.807,265.923,133.342z"/>
	<path style="fill-rule:evenodd;clip-rule:evenodd;fill:#DBD9BB;" d="M265.362,114.396c1.865,0.171,3.517,0.323,5.276,0.484
		c-2.521,4.866-5.05,9.746-7.583,14.635c-3.57-3.868-3.671-4.443-1.33-8.719C262.891,118.667,264.121,116.574,265.362,114.396z"/>
	<path style="fill-rule:evenodd;clip-rule:evenodd;fill:#F6F906;" d="M288.463,118.858c2.21,2.767,4.316,5.404,6.605,8.269
		c-4.215,1.265-8.095,2.43-12.85,3.857C284.479,126.59,286.42,122.825,288.463,118.858z"/>
	<path style="fill-rule:evenodd;clip-rule:evenodd;fill:#E0577C;" d="M267.637,110.642c2.149-3.5,4.298-6.999,6.713-10.931
		c1.772,2.569,3.381,4.899,5.235,7.583c-3.906,1.391-7.541,2.684-11.178,3.976C268.151,111.062,267.894,110.851,267.637,110.642z"/>
	<path style="fill-rule:evenodd;clip-rule:evenodd;fill:#D6D911;" d="M260.868,133.3c-2.064-0.186-3.649-0.326-5.725-0.511
		c1.141-2.187,2.013-3.861,3.155-6.051C259.221,129.091,259.939,130.924,260.868,133.3z"/>
	<path style="fill-rule:evenodd;clip-rule:evenodd;fill:#F9F7D4;" d="M285.095,152.515c0.189-0.101,0.377-0.203,0.565-0.304
		c-0.069,0.22-0.137,0.44-0.204,0.662C285.336,152.755,285.213,152.635,285.095,152.515z"/>
	<path style="fill-rule:evenodd;clip-rule:evenodd;fill:#FEFA8A;" d="M359.113,444.329c-0.5-1.457-1.059-2.417-1.135-3.416
		c-0.541-7.052,0.063-13.897,3.389-20.355c3.195-6.199,6.334-12.437,9.156-18.813c3.729-8.432,4.055-17.303,2.457-26.281
		c-0.291-1.648-0.615-3.519,1.363-3.828c0.83-0.132,2.723,1.597,2.83,2.621c0.617,5.82,1.395,11.71,1.068,17.519
		c-0.467,8.396-4.176,15.902-8.371,23.058c-4.941,8.43-7.67,17.6-9.6,27.077c-0.098,0.475-0.193,0.951-0.334,1.416
		C359.885,443.495,359.701,443.625,359.113,444.329z"/>
	<path style="fill-rule:evenodd;clip-rule:evenodd;fill:#050505;" d="M216.658,229.453c-1.141-1.186-1.847-2.478-0.234-3.749
		c8.191-6.465,17.482-8.919,27.769-7.22c1.668,0.275,3.333,1.222,4.757,2.21c4.319,2.997,4.511,6.109,0.814,10.051
		c-8.738-1.442-17.497-2.317-26.368-1.31C221.178,229.688,218.906,229.46,216.658,229.453z"/>
	<path style="fill-rule:evenodd;clip-rule:evenodd;fill:#070707;" d="M278.221,255.893c-0.648-0.425-1.34-0.797-1.938-1.283
		c-2.442-1.983-2.167-4.621,0.809-5.625c2.381-0.803,4.947-1.171,7.463-1.446c7.758-0.848,15.465-0.926,22.756,2.503
		c2.418,1.135,4.535,2.524,3.771,5.767c-1.414,3.019-4.088,3.684-7.059,3.754C295.219,259.773,286.596,258.701,278.221,255.893z
		 M306.311,254.327c-7.137-3.075-14.507-2.912-21.948-1.723C291.589,254.276,298.848,255.472,306.311,254.327z"/>
	<path style="fill-rule:evenodd;clip-rule:evenodd;fill:#050505;" d="M333.666,230.177c-2.611-0.305-5.225-0.608-8.432-0.98
		c0.303-0.786,0.545-2.307,1.357-3.398c4.328-5.79,13.004-8.63,19.75-5.946c4.947,1.97,9.621,4.706,14.238,7.402
		c2.336,1.364,0.457,2.275-0.857,2.994c-2.535,0.041-5.068,0.128-7.604,0.113C345.969,230.325,339.818,230.242,333.666,230.177z"/>
	<path style="fill-rule:evenodd;clip-rule:evenodd;fill:#78DDFE;" d="M218.065,518.932c-1.117-1.047-1.606-1.477-2.063-1.937
		c-4.154-4.173-8.232-8.424-12.47-12.509c-7.376-7.123-11.378-15.858-12.695-25.915c-0.123-0.938-0.083-2.068,0.346-2.857
		c0.444-0.819,1.454-1.327,2.218-1.973c0.453,0.77,1.196,1.499,1.313,2.318c1.536,10.745,6.119,19.8,14.623,26.706
		c3.937,3.199,6.573,7.253,8.061,12.063C217.722,515.875,217.763,517.009,218.065,518.932z"/>
	<path style="fill-rule:evenodd;clip-rule:evenodd;fill:#DEDEDE;" d="M278.221,255.893c8.375,2.809,16.998,3.881,25.803,3.67
		c2.971-0.07,5.645-0.735,7.059-3.754c0.305,2.853-1.447,4.358-3.703,5.403c-7.076,3.286-14.248,2.738-21.377,0.215
		c-2.305-0.817-4.549-1.881-6.672-3.092C278.701,257.975,278.575,256.731,278.221,255.893z"/>
	<path style="fill-rule:evenodd;clip-rule:evenodd;fill:#DBDBDB;" d="M216.658,229.453c2.248,0.007,4.52,0.234,6.738-0.018
		c8.872-1.007,17.63-0.132,26.368,1.31c-1.425,0.753-2.848,2.15-4.274,2.154c-7.617,0.027-15.25-0.103-22.846-0.625
		C220.594,232.133,218.651,230.437,216.658,229.453z"/>
	<path style="fill-rule:evenodd;clip-rule:evenodd;fill:#DEDEDE;" d="M333.666,230.177c6.152,0.064,12.303,0.147,18.453,0.184
		c2.535,0.015,5.068-0.072,7.604-0.113c-0.193,2.53-2.496,2.595-3.938,2.608c-6.326,0.062-12.662-0.155-18.975-0.533
		C335.721,232.259,334.711,230.925,333.666,230.177z"/>
	<path style="fill-rule:evenodd;clip-rule:evenodd;fill:#E8BC8C;" d="M306.311,254.327c-7.463,1.145-14.722-0.05-21.948-1.723
		C291.803,251.415,299.174,251.251,306.311,254.327z"/>
</g>
</svg>
