<?xml version="1.0" encoding="iso-8859-1"?>
<!-- Generator: Adobe Illustrator 16.0.0, SVG Export Plug-In . SVG Version: 6.00 Build 0)  -->
<!DOCTYPE svg PUBLIC "-//W3C//DTD SVG 1.1//EN" "http://www.w3.org/Graphics/SVG/1.1/DTD/svg11.dtd">
<svg version="1.1" id="Layer_1" xmlns="http://www.w3.org/2000/svg" xmlns:xlink="http://www.w3.org/1999/xlink" x="0px" y="0px"
	 width="595.28px" height="841.89px" viewBox="0 0 595.28 841.89" style="enable-background:new 0 0 595.28 841.89;"
	 xml:space="preserve">
<g>
	<path style="display:none;fill-rule:evenodd;clip-rule:evenodd;fill:#FEFEFE;" d="M-24.058,0.655c218.235,0,436.471,0,654.707,0
		c0,218.454,0,436.907,0,655.361c-218.235,0-436.471,0-654.707,0C-24.058,437.562-24.058,219.109-24.058,0.655z M506.075,473.479
		c0.301,0.757,0.598,1.44,0.848,2.14c5.298,14.86,12.284,28.858,22.021,41.311c2.832,3.622,6.421,6.79,10.121,9.555
		c3.672,2.744,7.774,2.176,11.583-0.422c4.178-2.85,6.37-7.031,8.056-11.59c5.651-15.289,6.303-31.334,6.786-47.333
		c0.568-18.77-0.667-37.475-2.809-56.144c-3.096-26.999-7.882-53.642-15.871-79.643c-9.615-31.296-22.431-61.042-42.798-87.073
		c-0.757-0.967-1.154-2.312-1.429-3.544c-2.105-9.453-3.874-18.989-6.275-28.364c-2.144-8.365-4.961-16.557-7.366-24.449
		c9.43-2.139,19.217-4.168,28.898-6.612c8.325-2.102,16.552-4.606,24.771-7.101c1.684-0.511,3.142-1.768,5.203-2.972
		c-3.092-2.478-5.206-4.884-7.862-6.184c-15.132-7.409-30.276-14.814-45.664-21.663c-6.371-2.836-11.668-7.017-15.873-12.016
		c-15.405-18.315-31.278-36.09-49.963-51.186c-9.409-7.602-18.794-15.372-30.07-19.927c-5.403-2.183-11.594-3.213-17.451-3.306
		c-10.438-0.166-20.94,0.316-31.333,1.354c-20.444,2.041-40.396,6.335-59.286,14.811c-28.665,12.86-54.455,30.109-77.929,50.891
		c-10.156,8.991-19.61,18.618-26.526,30.464c-0.721,1.234-2.076,2.236-3.348,2.99c-18.26,10.815-36.565,21.553-54.825,32.369
		c-1.679,0.995-3.117,2.396-4.667,3.608c0.115,0.5,0.23,1.001,0.345,1.502c23.282,3.252,46.791,4.491,70.053,6.478
		c-10.592,25.648-18.854,51.58-22.36,78.878c-0.091,0.712-0.369,1.489-0.797,2.056c-10.02,13.263-20.854,25.79-33.781,36.333
		c-5.186,4.23-10.651,8.117-16.289,12.386c-1.446-5.482-5.864-7.078-10.071-8.282c-6.256-1.791-12.725-2.839-18.402-4.054
		c-0.44-3.036-0.493-6.637-1.555-9.911c-1.316-4.061-5.524-5.694-9.33-3.683c-2.275,1.203-4.723,3.138-5.77,5.365
		c-1.797,3.826-2.56,8.139-3.676,11.973c-5.773,2.272-11.731,4.549-17.62,6.995c-1.027,0.427-2.084,1.406-2.572,2.402
		c-2.475,5.054-5.325,10.021-7.019,15.345c-4.98,15.651-4.519,31.778-2.99,47.878c0.421,4.436,1.696,8.791,2.579,13.183
		c0.794,0.128,0.69,0.439,0.514,0.699c-5.521,8.131-4.837,15.557,1.95,22.706c0.828,0.872,1.231,2.225,1.623,3.422
		c2.022,6.184,3.887,12.42,6.019,18.564c0.527,1.521,1.845,2.769,3.088,4.558c0.516-1.659,0.831-2.672,1.425-4.579
		c0.349,2.539,0.334,4.17,0.818,5.635c1.603,4.853,5.79,5.43,10.032,5.625c2.499,0.115,5.015-0.024,7.517-0.169
		c2.392-0.138,4.774-0.443,7.163-0.651c2.499-0.219,5.002-0.376,7.498-0.622c2.495-0.247,4.985-0.549,7.471-0.867
		c2.377-0.305,4.955-0.195,7.06-1.132c2.021-0.899,4.014-0.299,5.939-0.921c4.44-1.435,9.044-2.447,13.34-4.218
		c6.203-2.557,11.074-6.748,12.201-13.796c0.475-2.97-0.092-6.095,0.1-9.131c0.063-1.007,0.792-2.26,1.61-2.877
		c2.416-1.82,5.213-3.156,7.534-5.077c9.322-7.719,16.851-17.017,23.368-27.17c0.406-0.632,0.899-1.209,0.777-1.046
		c1.698,14.353,2.523,29.353,5.441,43.934c3.516,17.564,8.686,34.805,13.369,52.123c4.374,16.176,9.086,32.238,16.527,47.377
		c4.884,9.935,11.745,17.734,21.861,22.488c1.324,0.622,2.577,1.397,4.602,2.509c-3.192,4.187-5.715,8.471-9.153,11.813
		c-8.955,8.708-19.816,13.23-32.454,13.091c-2.046-0.022-4.201,0.181-4.52,2.713c-0.321,2.541,1.74,3.138,3.707,3.696
		c3.159,0.896,6.292,1.885,9.436,2.833c0.021,0.367,0.043,0.734,0.064,1.102c-4.592,1.481-9.147,3.088-13.786,4.403
		c-3.76,1.066-7.683,1.585-11.398,2.771c-1.178,0.376-2.608,2.06-2.711,3.249c-0.176,2.05,1.635,2.515,3.484,2.255
		c0.648-0.091,1.301-0.149,1.948-0.243c11.963-1.731,23.949-3.324,35.88-5.249c7.923-1.279,15.883-2.614,23.615-4.706
		c6.355-1.721,7.371-3.971,7.526-10.543c0.121-5.122,0.401-10.241,0.651-15.36c0.23-4.71,0.513-9.419,0.789-14.436
		c6.004-3.904,12.329-8.379,18.999-12.257c7.597-4.417,15.231-8.963,23.329-12.285c19.877-8.152,40.742-11.213,62.109-8.899
		c9.794,1.06,19.409,3.716,29.127,5.532c11.719,2.19,22.549,6.442,32.348,13.308c2.306,1.615,4.885,2.844,7.357,4.217
		c9.293,5.159,19.168,8.62,29.799,9.886c-0.306,2.872-0.505,5.486-0.874,8.075c-1.402,9.846-6.639,16.374-16.519,18.735
		c-2.959,0.707-6.039,0.982-8.924,1.896c-1.395,0.441-3.286,1.752-3.501,2.933c-0.354,1.949,1.438,2.726,3.445,2.958
		c14.067,1.633,25.459,7.732,33.256,19.936c0.82,1.284,2.847,2.895,3.918,2.646c1.367-0.317,2.834-2.193,3.373-3.711
		c1.394-3.93,3.797-6.807,7.386-8.766c2.003-1.094,4.075-2.061,6.076-3.156c3.24-1.775,6.556-3.45,9.609-5.509
		c1.025-0.692,2.028-2.569,1.801-3.642c-0.219-1.031-1.949-1.92-3.19-2.499c-1.044-0.489-2.335-0.463-3.521-0.632
		c-7.478-1.061-12.814-4.719-14.607-12.392c-0.888-3.798-1.381-7.688-2.147-11.516c-0.321-1.6-0.893-3.149-1.178-4.132
		c3.401-3.013,7.12-5.734,10.104-9.106c3.153-3.563,5.894-7.577,8.319-11.687C494.26,521.522,500.063,497.623,506.075,473.479z
		 M77.993,491.482c-6.249,0-12.199-0.448-18.057,0.094c-11.769,1.09-22.526,5.528-32.735,11.295
		c-1.483,0.838-3.415,2.177-3.719,3.59c-1.712,7.957-3.219,15.979-4.244,24.049c-0.236,1.854,1.169,4.787,2.739,5.807
		c2.822,1.834,3.501,4.079,3.516,7.014c0.011,2.07,0.057,4.147,0.228,6.209c1.1,13.234,2.101,26.479,3.445,39.69
		c0.429,4.214,1.548,8.769,5.485,11.063c4.449,2.593,9.353,4.466,14.194,6.294c1.602,0.604,3.684-0.204,5.445,0.144
		c8.185,1.618,16.261,4.142,24.514,4.979c12.308,1.248,24.589,0.094,36.395-4.104c5.796-2.062,10.526-5.51,12.453-11.574
		c1.476-4.645,2.576-9.448,3.374-14.259c2.154-12.996,4.018-26.041,6.129-39.045c0.188-1.152,1.096-2.698,2.078-3.129
		c5.849-2.566,8.16-5.347,7.106-11.578c-1.318-7.793-3.489-15.449-5.493-23.112c-0.532-2.033-1.674-4.071-4.464-2.095
		c-0.283,0.2-1.063-0.229-1.581-0.441c-4.813-1.969-9.48-4.453-14.457-5.819c-7.825-2.15-15.682-4.553-24.038-3.737
		c-3.185,0.312-6.425,0.051-9.8,0.051c0.075-1.538,0.138-2.828,0.204-4.178c0.971-0.334,1.899-0.59,2.775-0.968
		c5.006-2.16,7.811-8.777,5.415-13.051c-2.096-3.741-7.654-2.402-9.768-6.445c-0.341-0.652-2.228-0.789-3.356-0.686
		c-3.739,0.346-5.663,2.819-6.612,6.32c-0.679,0.047-1.326,0.075-1.97,0.14c-2.742,0.277-5.26,1.125-6.198,3.981
		c-1.011,3.077,0.25,5.809,2.771,7.425c2.541,1.628,5.535,2.548,8.563,3.881C78.261,489.74,78.082,490.904,77.993,491.482z"/>
	<path style="fill-rule:evenodd;clip-rule:evenodd;fill:#060606;" d="M506.075,473.479c-6.013,24.144-11.815,48.043-24.494,69.516
		c-2.426,4.109-5.166,8.124-8.319,11.687c-2.984,3.372-6.703,6.094-10.104,9.106c0.285,0.982,0.856,2.532,1.178,4.132
		c0.767,3.828,1.26,7.718,2.147,11.516c1.793,7.673,7.13,11.331,14.607,12.392c1.186,0.169,2.477,0.143,3.521,0.632
		c1.241,0.579,2.972,1.468,3.19,2.499c0.228,1.072-0.775,2.949-1.801,3.642c-3.054,2.059-6.369,3.733-9.609,5.509
		c-2.001,1.096-4.073,2.063-6.076,3.156c-3.589,1.959-5.992,4.836-7.386,8.766c-0.539,1.518-2.006,3.394-3.373,3.711
		c-1.071,0.248-3.098-1.362-3.918-2.646c-7.797-12.203-19.188-18.303-33.256-19.936c-2.007-0.232-3.8-1.009-3.445-2.958
		c0.215-1.181,2.106-2.491,3.501-2.933c2.885-0.913,5.965-1.188,8.924-1.896c9.88-2.361,15.116-8.89,16.519-18.735
		c0.369-2.589,0.568-5.203,0.874-8.075c-10.631-1.266-20.506-4.727-29.799-9.886c-2.473-1.373-5.052-2.602-7.357-4.217
		c-9.799-6.865-20.629-11.117-32.348-13.308c-9.718-1.816-19.333-4.473-29.127-5.532c-21.367-2.313-42.232,0.747-62.109,8.899
		c-8.097,3.322-15.732,7.868-23.329,12.285c-6.67,3.878-12.995,8.353-18.999,12.257c-0.276,5.017-0.559,9.726-0.789,14.436
		c-0.25,5.119-0.53,10.238-0.651,15.36c-0.156,6.572-1.171,8.822-7.526,10.543c-7.732,2.092-15.692,3.427-23.615,4.706
		c-11.932,1.925-23.917,3.518-35.88,5.249c-0.647,0.094-1.3,0.152-1.948,0.243c-1.849,0.26-3.66-0.205-3.484-2.255
		c0.103-1.189,1.533-2.873,2.711-3.249c3.715-1.186,7.639-1.704,11.398-2.771c4.639-1.315,9.194-2.922,13.786-4.403
		c-0.021-0.367-0.042-0.734-0.064-1.102c-3.144-0.948-6.277-1.937-9.436-2.833c-1.966-0.559-4.027-1.155-3.707-3.696
		c0.319-2.532,2.474-2.735,4.52-2.713c12.638,0.14,23.5-4.383,32.454-13.091c3.438-3.343,5.961-7.627,9.153-11.813
		c-2.025-1.111-3.278-1.887-4.602-2.509c-10.117-4.754-16.977-12.554-21.861-22.488c-7.441-15.139-12.153-31.201-16.527-47.377
		c-4.683-17.318-9.853-34.559-13.369-52.123c-2.918-14.581-3.743-29.581-5.441-43.934c0.122-0.163-0.371,0.414-0.777,1.046
		c-6.517,10.153-14.045,19.451-23.368,27.17c-2.321,1.921-5.118,3.257-7.534,5.077c-0.819,0.617-1.547,1.87-1.61,2.877
		c-0.192,3.036,0.375,6.161-0.1,9.131c-1.127,7.048-5.998,11.239-12.201,13.796c-4.296,1.771-8.9,2.783-13.34,4.218
		c-1.925,0.622-3.917,0.021-5.939,0.921c-2.105,0.937-4.683,0.827-7.06,1.132c-2.486,0.318-4.977,0.62-7.471,0.867
		c-2.496,0.246-5,0.403-7.498,0.622c-2.389,0.208-4.771,0.514-7.163,0.651c-2.502,0.145-5.018,0.284-7.517,0.169
		c-4.242-0.195-8.429-0.772-10.032-5.625c-0.484-1.465-0.469-3.096-0.818-5.635c-0.594,1.907-0.909,2.92-1.425,4.579
		c-1.243-1.789-2.561-3.036-3.088-4.558c-2.132-6.145-3.997-12.381-6.019-18.564c-0.392-1.197-0.794-2.55-1.623-3.422
		c-6.788-7.149-7.471-14.575-1.95-22.706c0.177-0.26,0.28-0.571-0.514-0.699c-0.883-4.392-2.158-8.747-2.579-13.183
		c-1.529-16.1-1.99-32.227,2.99-47.878c1.694-5.324,4.544-10.292,7.019-15.345c0.488-0.996,1.545-1.975,2.572-2.402
		c5.888-2.446,11.847-4.723,17.62-6.995c1.117-3.834,1.879-8.147,3.676-11.973c1.047-2.228,3.495-4.162,5.77-5.365
		c3.805-2.011,8.013-0.378,9.33,3.683c1.062,3.274,1.115,6.875,1.555,9.911c5.677,1.215,12.146,2.263,18.402,4.054
		c4.207,1.204,8.625,2.8,10.071,8.282c5.638-4.27,11.104-8.156,16.289-12.386c12.927-10.543,23.761-23.07,33.781-36.333
		c0.428-0.567,0.706-1.343,0.797-2.056c3.506-27.298,11.768-53.23,22.36-78.878c-23.263-1.987-46.771-3.225-70.053-6.478
		c-0.115-0.501-0.229-1.001-0.345-1.502c1.55-1.213,2.988-2.614,4.667-3.608c18.259-10.816,36.565-21.554,54.825-32.369
		c1.271-0.754,2.627-1.756,3.348-2.99c6.916-11.847,16.37-21.473,26.526-30.464c23.474-20.782,49.264-38.031,77.929-50.891
		c18.891-8.476,38.842-12.771,59.286-14.811c10.393-1.038,20.895-1.52,31.333-1.354c5.857,0.092,12.048,1.123,17.451,3.306
		c11.276,4.555,20.661,12.325,30.07,19.927c18.685,15.095,34.558,32.871,49.963,51.186c4.205,4.999,9.502,9.18,15.873,12.016
		c15.388,6.849,30.532,14.254,45.664,21.663c2.656,1.3,4.771,3.706,7.862,6.184c-2.062,1.204-3.52,2.461-5.203,2.972
		c-8.219,2.495-16.445,5-24.771,7.101c-9.682,2.444-19.469,4.474-28.898,6.612c2.405,7.893,5.223,16.084,7.366,24.449
		c2.401,9.375,4.17,18.912,6.275,28.364c0.274,1.232,0.672,2.577,1.429,3.544c20.367,26.032,33.183,55.777,42.798,87.073
		c7.989,26.001,12.775,52.644,15.871,79.643c2.142,18.669,3.377,37.374,2.809,56.144c-0.483,15.999-1.135,32.044-6.786,47.333
		c-1.686,4.559-3.878,8.74-8.056,11.59c-3.809,2.598-7.911,3.166-11.583,0.422c-3.7-2.765-7.289-5.933-10.121-9.555
		c-9.736-12.452-16.723-26.45-22.021-41.311C506.673,474.919,506.376,474.236,506.075,473.479z M206.01,603.228
		c7.104-0.984,14.206-1.968,21.31-2.952c3.073-0.991,6.212-1.826,9.181-3.069c0.897-0.375,1.816-1.851,1.88-2.875
		c0.387-6.278,0.492-12.573,0.775-18.858c0.14-3.104,0.46-6.199,0.735-9.776c-1.763,0.953-3.988,1.418-4.269,2.426
		c-2.009,7.193-6.899,12.145-12.253,16.816c-6.173,4.498-12.755,8.179-20.794,10.004c3,2.242,4.521,4.66,3.139,8.016
		c-0.127,0.151-0.255,0.303-0.382,0.454C205.557,603.351,205.784,603.29,206.01,603.228z M76.782,327.983
		c-4.879,1.29-9.759,2.579-15.074,3.984c5.928,7.275,13.046,9.073,20.906,9.05c4.254-1.826,8.659-3.374,12.717-5.565
		c3.354-1.812,5.137-5.089,5.844-9.451C92.75,325.208,84.677,325.155,76.782,327.983z M61.049,438.393
		c-2.253-0.476-4.506-0.95-7.225-1.523c1.839,5.019,3.096,9.929,5.404,14.279c1.831,3.452,3.762,7.763,8.766,7.781
		c4.225,0.017,8.451-0.446,12.676-0.696c7.785-0.744,15.65-1.022,23.329-2.371c6.79-1.191,13.531-3.146,19.992-5.567
		c5.417-2.029,8.343-6.396,7.782-12.62c-1.018-11.282-1.561-22.617-2.938-33.853c-1.759-14.347-3.837-28.672-6.377-42.899
		c-1.616-9.052-4.17-17.951-6.616-26.832c-0.922-3.353-2.58-6.62-7.271-5.46c-0.504,0.125-1.151-0.323-0.94-0.257
		c-2.622,3.744-4.352,8.042-7.522,10.42c-12.804,9.6-23.164,11.025-37.587,2.248c-1.159-1.14-2.276-2.327-3.484-3.412
		c-3.022-2.713-3.797-2.62-5.371,1.026c-3.726,8.633-7.184,17.279-6.429,27.073c0.362,4.704-0.711,9.507-0.49,14.235
		c0.381,8.188,1.264,16.352,1.95,24.7c2.828-1.268,5.279-2.367,7.73-3.466c1.564-0.69,3.54-1,4.604-2.151
		c2.095-2.267,3.585-5.079,5.531-7.5c0.709-0.883,2.005-1.295,3.033-1.922c0.645,1.114,1.872,2.265,1.807,3.335
		c-0.113,1.869-1.022,3.69-1.683,5.802c3.031-0.269,5.98-0.531,9.11-0.81c-0.201-0.604-0.285-1.023-0.471-1.391
		c-1.03-2.05-1.948-4.346,0.589-5.707c2.778-1.49,3.483,1.18,4.808,2.885c1.162,1.494,2.868,2.776,4.6,3.571
		c3.336,1.531,6.941,2.471,10.289,3.981c6.914,3.116,10.33,9.255,11.971,16.091c1.417,5.901-3.216,12.954-10.239,16.227
		c-3.845,1.791-8.198,2.522-12.353,3.613c-3.324,0.872-6.694,1.565-10.044,2.338c-0.203-0.153-0.371-0.121-0.505,0.097
		c-0.671,0.045-1.341,0.09-2.013,0.135c-0.115-0.248-0.23-0.496-0.346-0.744c-0.105,0.257-0.21,0.514-0.316,0.771
		c-3.712-0.145-7.424-0.29-11.137-0.435c-0.65-0.288-1.3-0.576-1.95-0.865c-0.086-0.261-0.173-0.521-0.26-0.781
		C61.318,437.957,61.183,438.175,61.049,438.393z M462.432,605.677c4.633-2.878,9.266-5.755,14.169-8.8
		c-0.815-0.271-1.475-0.509-2.145-0.711c-5.894-1.777-9.971-5.457-12.218-11.254c-2.572-6.636-4.369-13.386-3.703-20.732
		c-1.817-0.185-3.464-0.352-5.308-0.539c0.747,8.143-0.981,15.383-5.316,21.962c-3.896,3.034-7.794,6.068-11.456,8.92
		c8.307,3.214,16.368,8.103,21.918,16.494C459.856,609.065,461.144,607.371,462.432,605.677z M75.46,433.538
		c6.484-1.421,12.967-2.842,19.451-4.262c2.112-1.306,4.64-2.24,6.221-4.019c1.619-1.819,3.21-4.455,3.231-6.749
		c0.055-5.981-4.928-11.418-10.908-12.422c-13.481-2.263-26.806-2.614-39.581,3.587c-4.089,1.985-6.616,5.02-7.067,9.383
		c-0.416,4.023,1.649,7.179,5.135,9.14c2.895,1.629,5.976,2.926,8.897,4.332c0,0.895,0,1.818,0,2.743
		c0.213,0.019,0.427,0.036,0.64,0.055c0.181-0.901,0.361-1.805,0.51-2.55c3.922,0.2,7.708,0.395,11.495,0.589
		c0.218,0.103,0.437,0.205,0.655,0.308c0.107,1.331,0.214,2.663,0.378,4.697c0.626-0.963,0.827-1.131,0.835-1.308
		C75.413,435.889,75.43,434.713,75.46,433.538z M169.567,310.31c0-6.167,0-12.334,0-16.879
		c-7.786,8.076-16.321,17.345-25.329,26.129c-6.395,6.236-13.462,11.759-22.817,13.172c4.844,12.455,6.413,25.525,8.584,38.461
		c2.491,18.246,4.982,36.492,7.466,54.683c11.366-8.518,20.604-19.15,28.58-30.976c3.279-4.862,6.9-9.521,6.23-15.903
		c-0.022-0.212-0.038-0.491,0.074-0.641c0.653-0.876,1.346-1.723,2.025-2.579c0.654,0.884,1.798,1.725,1.878,2.658
		c0.381,4.448,0.655,8.92,0.637,13.383c-0.076,19.383,1.783,38.636,6.546,57.356c5.976,23.483,12.826,46.764,19.971,69.924
		c4.94,16.014,12.634,30.538,26.896,40.654c2.544,1.805,4.444,2.686,7.049,0.789c2.236-1.083,4.584-1.985,6.686-3.285
		c5.458-3.375,10.877-6.82,16.188-10.421c25.81-17.497,54.442-24.483,85.362-23.278c9.753,0.381,19.095,2.769,28.587,4.69
		c15.098,3.057,29.481,7.488,42.101,16.635c1.227,0.89,2.601,1.583,3.933,2.318c9.662,5.339,19.694,9.704,30.702,11.401
		c1.937,0.299,3.981,0.695,5.865,0.384c6.625-1.1,10.779-5.776,14.557-10.791c11.063-14.686,16.948-31.699,21.94-49.105
		c1.639-5.381,3.665-10.681,4.829-16.162c2.071-9.757,5.865-19.435,2.265-29.69c-0.855-2.438-1.11-5.091-1.612-7.65
		c-0.728-3.715-1.428-7.434-2.219-11.557c-9.216,13.398-20.539,13.948-30.214,1.426c-3.172-4.107-5.458-9.162-7.106-14.129
		c-3.683-11.101-3.449-22.731-3.405-34.281c0.006-1.341,0.001-2.682,0.001-4.096c-7.063,1.677-13.72-3.649-13.04-9.997
		c0.453,0.467,0.921,0.921,1.359,1.401c3.508,3.847,6.87,4.469,11.404,2.1c3.015-1.575,5.402-0.265,5.547,3.318
		c0.194,4.789-0.029,9.594,0.143,14.385c0.358,10.014,0.619,20.05,4.376,29.577c2.305,5.845,5.703,10.77,11.303,13.888
		c2.649,1.477,5.602,2.543,8.387,0.835c4.761-2.922,8.818-6.669,11.49-11.851c0.338,0.984,0.703,1.979,1.022,2.988
		c4.106,12.948,8.16,25.914,12.319,38.846c5.572,17.328,13.301,33.56,24.83,47.787c1.49,1.84,3.29,3.506,5.192,4.921
		c3.568,2.654,6.268,2.547,9.098-0.908c2.016-2.462,3.603-5.46,4.685-8.47c4.904-13.635,5.59-27.954,5.93-42.217
		c0.948-39.777-3.816-78.987-13.253-117.574c-10.866-44.436-28.583-85.599-59.613-120.09c-0.725-0.806-1.561-1.663-1.872-2.646
		c-0.315-0.994-0.042-2.174-0.025-3.273c0.99,0.191,2.134,0.136,2.938,0.632c1.185,0.731,2.196,1.789,3.16,2.822
		c3.042,3.261,6.027,6.576,9.034,9.871c0.18-0.063,0.359-0.127,0.538-0.191c-4.645-15.136-9.289-30.272-13.935-45.408
		c-0.609-4.99-2.573-5.233-6.546-4.6c-14.075,2.242-28.073,5.158-42.223,6.693c-20.686,2.246-41.449,4.075-62.229,5.068
		c-27.555,1.318-55.155,1.664-82.736,2.417c-11.945,0.327-23.889,0.825-35.836,0.873c-7.469,0.03-14.938-0.69-22.412-0.978
		c-12.3-0.473-24.604-0.868-37.108-1.303c-0.462,1.57-0.951,3.229-1.438,4.888c-9.137,24.943-17.074,50.217-20.547,76.666
		c-1.317,10.029-2.228,20.112-3.323,30.17c-0.638,5.437-1.276,10.874-1.914,16.311c-0.319-0.021-0.638-0.043-0.956-0.064
		C169.567,323.33,169.567,316.82,169.567,310.31z M436.221,94.879l0.094-0.026c-11.086-10.364-22.791-19.935-35.708-27.962
		c-1.714-1.065-3.222-2.713-5.07-3.254c-2.889-0.845-5.975-1.222-8.998-1.366c-15.815-0.752-31.589,0.023-47.183,2.679
		c-12.065,2.054-24.117,4.283-35.697,8.591c-23.045,8.574-43.887,21.065-63.862,35.17c-7.469,5.976-15.115,11.747-22.364,17.979
		c-9.911,8.52-19.47,17.507-26,29.002c-2.34,4.119-5.542,6.831-9.311,9.227c-3.469,2.207-6.961,4.376-10.444,6.563
		c-5.156,2.808-10.259,5.72-15.482,8.398c-6.572,3.369-13.257,6.521-19.854,9.843c-0.839,0.422-1.447,1.304-2.641,2.42
		c1.376,0.202,1.797,0.293,2.222,0.322c13.67,0.932,27.34,1.864,41.01,2.784c15.422,1.039,30.831,2.542,46.27,2.981
		c20.368,0.58,40.76,0.5,61.14,0.376c20.924-0.126,41.855-0.369,62.765-1.077c19.586-0.664,39.171-1.721,58.717-3.138
		c15.39-1.115,30.845-2.287,46.05-4.777c24.624-4.031,49.286-8.093,73.38-14.848c4.849-1.358,9.731-2.593,14.599-3.885
		c-2.218-1.711-4.55-2.514-6.726-3.624c-13.557-6.919-27.079-13.907-40.611-20.868c-3.19-1.531-6.454-2.93-9.551-4.633
		c-2.723-1.496-5.712-2.904-7.785-5.103c-4.841-5.137-8.99-10.923-13.806-16.086c-7.924-8.495-16.152-16.706-24.253-25.036
		C436.82,95.315,436.521,95.097,436.221,94.879z M86.713,319.984c-0.385-2.263-0.646-4.489-1.183-6.646
		c-0.261-1.049-1.038-1.969-1.582-2.946c-1.142,0.705-2.846,1.15-3.316,2.166c-1.229,2.655-1.918,5.561-2.893,8.584
		C81.2,320.696,83.976,320.338,86.713,319.984z"/>
	<path style="fill-rule:evenodd;clip-rule:evenodd;fill:#050505;" d="M77.993,491.482c0.089-0.578,0.268-1.742,0.338-2.196
		c-3.028-1.333-6.022-2.253-8.563-3.881c-2.521-1.616-3.782-4.348-2.771-7.425c0.938-2.856,3.456-3.704,6.198-3.981
		c0.644-0.064,1.291-0.093,1.97-0.14c0.95-3.501,2.873-5.975,6.612-6.32c1.128-0.104,3.015,0.033,3.356,0.686
		c2.113,4.043,7.672,2.704,9.768,6.445c2.396,4.273-0.409,10.891-5.415,13.051c-0.876,0.378-1.805,0.634-2.775,0.968
		c-0.066,1.35-0.129,2.64-0.204,4.178c3.375,0,6.616,0.261,9.8-0.051c8.356-0.815,16.213,1.587,24.038,3.737
		c4.976,1.366,9.644,3.851,14.457,5.819c0.519,0.212,1.298,0.642,1.581,0.441c2.79-1.977,3.933,0.062,4.464,2.095
		c2.004,7.663,4.175,15.319,5.493,23.112c1.053,6.231-1.257,9.012-7.106,11.578c-0.982,0.431-1.891,1.977-2.078,3.129
		c-2.111,13.004-3.975,26.049-6.129,39.045c-0.797,4.811-1.898,9.614-3.374,14.259c-1.927,6.064-6.656,9.513-12.453,11.574
		c-11.806,4.197-24.087,5.352-36.395,4.104c-8.253-0.837-16.329-3.36-24.514-4.979c-1.761-0.348-3.843,0.46-5.445-0.144
		c-4.841-1.828-9.745-3.701-14.194-6.294c-3.937-2.295-5.056-6.85-5.485-11.063c-1.344-13.211-2.345-26.456-3.445-39.69
		c-0.171-2.062-0.217-4.139-0.228-6.209c-0.015-2.935-0.694-5.18-3.516-7.014c-1.57-1.02-2.975-3.953-2.739-5.807
		c1.025-8.07,2.532-16.092,4.244-24.049c0.304-1.413,2.236-2.752,3.719-3.59c10.209-5.767,20.966-10.205,32.735-11.295
		C65.794,491.034,71.745,491.482,77.993,491.482z M81.923,495.568c0.469-3.03,0.938-6.06,1.408-9.09
		c6.316-3.024,8.331-5.682,7.25-10.064c-3.324,1.346-5.804,0.396-7.029-3.111c-2.059-1.54-3.072-1.139-3.552,1.813
		c-0.434,2.664-1.681,3.777-4.396,3.597c-1.371-0.091-2.777,0.343-4.167,0.538c-0.094,0.407-0.188,0.814-0.281,1.221
		c2.742,1.802,5.483,3.603,8.225,5.403c0.444,1.035,1.149,2.04,1.276,3.113c0.255,2.156,0.194,4.349,0.264,6.526
		c0,3.643,0,7.283,0,10.925c0.334-0.008,0.669-0.017,1.003-0.025C81.923,502.797,81.923,499.183,81.923,495.568z M72.178,604.915
		c0.625,0.188,1.238,0.474,1.876,0.55c11.133,1.325,22.155,0.513,33.146-1.547c9.772-1.831,15.774-6.989,17.042-17.313
		c1.125-9.167,2.751-18.274,4.275-27.389c1.013-6.06,2.234-12.084,3.373-18.179c-6.598,0.363-12.876,0.883-19.162,0.998
		c-4.996,0.091-10.004-0.26-14.999-0.545c-1.018-0.058-2.002-0.699-3.002-1.072c1.325-1.347,2.559-2.096,3.875-2.294
		c4.939-0.745,9.895-1.419,14.865-1.915c7.683-0.767,15.392-1.277,23.071-2.075c3.091-0.32,4.629-2.26,4.017-5.465
		c-1.118-5.86-2.656-11.665-3.344-17.572c-0.505-4.34-1.938-6.284-6.56-7.063c-9.406-1.587-18.606-4.366-27.993-6.103
		c-5.353-0.99-10.906-0.894-16.569-1.3c0,2.344,0,3.932,0,5.506c1.771,0.174,3.378,0.407,4.993,0.478
		c10.257,0.446,19.689,5.972,30.222,4.926c0.778-0.078,1.702,1.31,2.559,2.015c-0.78,0.773-1.457,2.062-2.355,2.24
		c-9.994,1.993-19.655,5.794-30.051,5.634c-5.334-0.082-10.67-0.119-16.005-0.176c-1.173-0.224-2.349-0.44-3.521-0.673
		c-8.842-1.752-17.709-3.395-26.509-5.338c-2.349-0.518-4.494-1.959-7.135-3.159c13.096-5.54,26-7.233,39.154-6.535
		c0-2.386,0-4.499,0-6.389c-2.382,0.12-4.53,0.224-6.677,0.34c-3.033,0.162-6.079,0.213-9.097,0.521
		c-11.675,1.198-22.053,6.29-32.531,11.04c-0.58,0.263-1.231,1.01-1.322,1.611c-1.004,6.668-1.861,13.359-2.854,20.029
		c-0.35,2.351,0.591,3.883,2.689,4.578c3.279,1.088,6.616,2.014,9.954,2.913c5.61,1.513,11.239,2.95,16.861,4.42
		c-0.051,0.342-0.103,0.684-0.154,1.024c-7.679,1.107-15.356,0.909-23.294-0.667c0.183,3.267,0.276,6.394,0.545,9.507
		c1.104,12.793,2.091,25.602,3.475,38.365c0.633,5.841,5.363,9.916,11.022,10.87c4.909,0.827,9.766,1.961,14.65,2.942
		C64.529,603.42,68.354,604.162,72.178,604.915z M104.506,510.926c0.006-0.345,0.012-0.688,0.018-1.031
		c-0.758-0.377-1.484-0.983-2.279-1.093c-4.591-0.635-9.2-1.133-13.798-1.72c-1.855-0.237-3.283-0.293-4.612,1.711
		c-0.662,0.998-3.135,1.044-4.776,1.003c-0.56-0.015-1.565-1.633-1.528-2.481c0.125-2.832-1.299-2.95-3.482-2.597
		c-5.868,0.95-11.759,1.755-17.627,2.699c-0.684,0.111-1.284,0.742-1.923,1.132c0.08,0.343,0.161,0.687,0.241,1.029
		C71.265,512.228,87.836,513.321,104.506,510.926z"/>
	<path style="fill-rule:evenodd;clip-rule:evenodd;fill:#FEFEFE;" d="M172.437,313.592c1.096-10.058,2.006-20.141,3.323-30.17
		c3.473-26.449,11.41-51.723,20.547-76.666c0.403,0.146,0.873,0.205,1.201,0.451c3.873,2.904,7.389,6.432,12.615,6.893
		c0.577,0.05,1.097,0.583,1.672,0.817c4.983,2.031,9.947,4.11,14.968,6.038c2.729,1.049,5.525,1.983,8.365,2.654
		c1.032,0.243,2.279-0.43,3.429-0.685c1.042-0.003,2.084-0.007,3.126-0.01c0.656,0.765,1.281,2.165,1.972,2.198
		c7.306,0.351,14.582,0.255,21.924,1.145c6.391,0.774,13.096-0.188,19.654-0.641c10.574-0.729,21.425-1.88,32.036,0.748
		c0.457,0.113,1.018-0.18,1.527-0.297c1.223-0.279,2.454-0.852,3.664-0.804c8.829,0.347,17.661,0.389,26.501,0.912
		c14.554,0.859,29.24-0.523,43.87-0.965c0.434-0.013,0.877-0.029,1.298-0.124c5.552-1.258,11.076-2.65,16.657-3.763
		c4.602-0.917,9.349-1.189,13.887-2.323c5.983-1.495,11.841-3.508,17.725-5.384c3.63-1.157,7.26-2.347,10.801-3.748
		c7.305-2.892,14.657-5.701,21.776-9.003c4.165-1.932,7.919-4.749,11.858-7.167c4.646,15.136,9.29,30.272,13.935,45.408
		c-0.179,0.064-0.358,0.128-0.538,0.191c-3.007-3.294-5.992-6.609-9.034-9.871c-0.964-1.033-1.976-2.091-3.16-2.822
		c-0.804-0.496-1.947-0.441-2.938-0.632c-0.017,1.099-0.29,2.279,0.025,3.273c0.312,0.983,1.147,1.84,1.872,2.646
		c31.03,34.491,48.747,75.654,59.613,120.09c9.437,38.587,14.201,77.797,13.253,117.574c-0.34,14.263-1.025,28.582-5.93,42.217
		c-1.082,3.01-2.669,6.008-4.685,8.47c-2.83,3.455-5.529,3.563-9.098,0.908c-1.902-1.415-3.702-3.081-5.192-4.921
		c-11.529-14.228-19.258-30.459-24.83-47.787c-4.159-12.932-8.213-25.897-12.319-38.846c-0.319-1.009-0.685-2.004-1.022-2.988
		c-2.672,5.182-6.729,8.929-11.49,11.851c-2.785,1.708-5.737,0.642-8.387-0.835c-5.6-3.118-8.998-8.043-11.303-13.888
		c-3.757-9.527-4.018-19.563-4.376-29.577c-0.172-4.791,0.052-9.596-0.143-14.385c-0.145-3.583-2.532-4.894-5.547-3.318
		c-4.534,2.369-7.896,1.748-11.404-2.1c-0.438-0.48-0.906-0.935-1.359-1.401c-0.279-2.705-0.561-5.41-0.841-8.115
		c-0.407-0.113-0.816-0.225-1.224-0.337c-1.046,0.953-2.86,1.801-3.009,2.878c-0.69,5.019-1.472,10.136-1.157,15.151
		c0.305,4.882,1.863,9.691,2.938,14.519c1.179,5.297,2.679,10.398,6.565,14.558c3,3.212,4.879,7.146,5.203,11.623
		c0.493,6.804,1.282,13.619,1.202,20.421c-0.088,7.377,2.963,13.628,5.772,20.035c3.453,7.875,8.589,14.508,15.001,20.224
		c6.282,5.602,11.126,13.075,20.05,15.18c-4.992,17.406-10.878,34.42-21.94,49.105c-3.777,5.015-7.932,9.691-14.557,10.791
		c-1.884,0.312-3.929-0.085-5.865-0.384c-11.008-1.697-21.04-6.063-30.702-11.401c-1.332-0.735-2.706-1.429-3.933-2.318
		c-12.619-9.146-27.003-13.578-42.101-16.635c-9.492-1.922-18.834-4.31-28.587-4.69c-30.92-1.205-59.552,5.781-85.362,23.278
		c-5.311,3.601-10.731,7.046-16.188,10.421c-2.102,1.3-4.45,2.202-6.686,3.285c-4.372-3.341-8.674-6.778-13.137-9.995
		c-4.377-3.155-7.468-7.276-9.492-12.167c-3.723-8.995-7.272-18.062-10.883-27.103c-1.321-3.309-2.892-6.549-3.862-9.958
		c-2.809-9.873-5.351-19.822-8.049-29.728c-0.511-1.877-1.403-3.654-1.866-5.54c-1.667-6.796-3.418-13.58-4.767-20.441
		c-1.096-5.573-2.246-11.24-2.352-16.885c-0.317-16.889-0.149-33.787-0.123-50.681c0.003-1.609,0.245-3.234,0.531-4.823
		c0.886-4.917-1.046-7.725-5.771-8.068c0-6.957,0.171-13.93-0.048-20.891c-0.219-6.991-0.756-13.975-1.29-20.951
		C175.977,319.726,175.039,316.309,172.437,313.592z M289.947,234.278c-2.55,0.614-6.188,1.282-9.67,2.422
		c-1.662,0.544-3.665,1.653-4.418,3.083c-3.282,6.23-6.425,12.565-9.087,19.079c-1.522,3.726,1.38,6.74,5.422,6.112
		c1.908-0.296,3.926-0.765,5.573-1.713c7.505-4.324,14.932-8.789,22.3-13.345c1.44-0.891,2.605-2.316,3.699-3.657
		c1.776-2.174,1.851-4.286,0.117-6.799C300.66,234.784,295.804,234.929,289.947,234.278z"/>
	<path style="fill-rule:evenodd;clip-rule:evenodd;fill:#51558E;" d="M239.796,108.712c19.976-14.105,40.817-26.597,63.862-35.17
		c11.58-4.308,23.632-6.537,35.697-8.591c15.594-2.655,31.367-3.431,47.183-2.679c3.023,0.144,6.109,0.521,8.998,1.366
		c1.849,0.541,3.356,2.189,5.07,3.254c12.917,8.027,24.622,17.598,35.707,27.962c-1.191-0.037-2.494,0.23-3.553-0.162
		c-4.977-1.845-9.904-3.829-14.815-5.847c-3.932-1.615-8.147-1.546-11.685,0.08c-4.43,2.036-8.511,5.044-12.335,8.136
		c-5.803,4.69-11.216,9.86-16.874,14.734c-2.937,2.529-6.05,4.852-9.073,7.281c-4.701,3.777-9.41,7.546-14.086,11.356
		c-4.335,3.531-8.626,7.117-12.946,10.665c-2.239,1.839-4.652,3.499-6.706,5.524c-1.677,1.654-0.906,3.004,1.037,4.104
		c7.42,4.203,16.026,3.056,23.886,5.512c5.198,1.625,11.061,1.28,16.638,1.464c2.281,0.075,4.577-0.937,6.895-1.179
		c5.43-0.567,10.877-0.967,16.317-1.435c3.129-0.225,6.346-0.064,9.373-0.741c14.301-3.197,28.551-6.625,42.817-9.97
		c0.307,0.284,0.587,0.78,0.922,0.82c4.43,0.524,8.88,0.892,13.299,1.492c2.918,0.396,5.953,0.695,8.655,1.754
		c6.356,2.49,12.895,2.952,19.575,2.662c0.241-0.01,0.467-0.388,0.813-0.694c-0.655-1.351-1.305-2.686-1.953-4.021
		c13.533,6.964,27.056,13.952,40.612,20.871c2.176,1.11,4.508,1.913,6.726,3.624c-4.867,1.292-9.75,2.526-14.599,3.885
		c-24.094,6.755-48.756,10.817-73.38,14.848c-15.205,2.49-30.66,3.662-46.05,4.777c-19.546,1.417-39.131,2.474-58.717,3.138
		c-20.91,0.708-41.841,0.951-62.765,1.077c-20.379,0.124-40.772,0.204-61.14-0.376c-15.439-0.44-30.848-1.943-46.27-2.981
		c-13.67-0.92-27.34-1.852-41.01-2.784c-0.425-0.029-0.846-0.12-2.222-0.322c1.194-1.117,1.802-1.999,2.641-2.42
		c6.598-3.322,13.282-6.474,19.854-9.843c5.223-2.679,10.326-5.59,15.482-8.398c0.904,0.235,1.831,0.737,2.708,0.661
		c4.049-0.357,8.423-0.04,12.054-1.511c7.142-2.896,14.409-2.25,21.703-2.349c0.949-0.013,1.898,0.351,2.856,0.414
		c4.286,0.281,9.431,2.142,12.682,0.428c6.634-3.497,13.729-2.093,20.429-3.92c5.379-1.467,11.268-1.009,16.917-1.557
		c3.398-0.33,6.816-0.737,10.14-1.489c4.721-1.069,9.359-2.502,14.042-3.748c1.555-0.414,3.136-0.728,4.605-1.064
		c-5.043-2.472-10.042-4.614-14.718-7.318c-3.488-2.018-6.268-5.393-9.876-7.037c-5.647-2.573-8.873-7.505-12.931-11.601
		c-1.981-2-3.792-4.659-4.494-7.331c-1.435-5.476-1.809-11.289-7.46-14.545C240.083,109.369,239.972,108.984,239.796,108.712z"/>
	<path style="fill-rule:evenodd;clip-rule:evenodd;fill:#B2737B;" d="M62.52,341.043c14.423,8.777,24.783,7.352,37.587-2.248
		c3.171-2.378,4.9-6.677,7.522-10.42c-0.21-0.066,0.436,0.382,0.94,0.257c4.691-1.16,6.349,2.107,7.271,5.46
		c2.446,8.881,5,17.78,6.616,26.832c2.54,14.228,4.619,28.553,6.377,42.899c1.377,11.235,1.92,22.57,2.938,33.853
		c0.561,6.225-2.365,10.591-7.782,12.62c-6.461,2.422-13.202,4.376-19.992,5.567c-7.678,1.349-15.544,1.627-23.329,2.371
		c-0.419-0.597-1.13-1.154-1.213-1.794c-0.974-7.515-6.159-11.155-12.424-13.988c-1.317-0.596-2.257-2.023-3.371-3.067
		c3.712,0.145,7.424,0.29,11.137,0.435c0.221-0.009,0.442-0.018,0.662-0.026c0.671-0.045,1.342-0.09,2.013-0.135l0.271,0.049
		l0.234-0.146c3.35-0.772,6.72-1.466,10.044-2.338c4.155-1.091,8.507-1.822,12.353-3.613c7.023-3.273,11.656-10.326,10.239-16.227
		c-1.641-6.835-5.057-12.975-11.971-16.091c-3.348-1.51-6.953-2.45-10.289-3.981c-1.732-0.795-3.438-2.077-4.6-3.571
		c-1.325-1.705-2.03-4.375-4.808-2.885c-2.538,1.361-1.619,3.657-0.589,5.707c0.186,0.368,0.27,0.787,0.471,1.391
		c-3.129,0.278-6.079,0.541-9.11,0.81c0.66-2.112,1.569-3.933,1.683-5.802c0.065-1.071-1.162-2.221-1.807-3.335
		c-1.028,0.627-2.324,1.039-3.033,1.922c-1.946,2.421-3.437,5.234-5.531,7.5c-1.064,1.152-3.04,1.461-4.604,2.151
		c-0.64-6.621-1.783-13.241-1.801-19.864c-0.027-9.574,0.344-19.197,1.387-28.708C56.489,348.271,57.393,343.222,62.52,341.043z"/>
	<path style="fill-rule:evenodd;clip-rule:evenodd;fill:#474B7D;" d="M399.013,155.086c-5.44,0.468-10.888,0.868-16.317,1.435
		c-2.317,0.242-4.613,1.254-6.895,1.179c-5.577-0.184-11.439,0.16-16.638-1.464c-7.859-2.456-16.466-1.309-23.886-5.512
		c-1.943-1.101-2.714-2.451-1.037-4.104c2.054-2.025,4.467-3.685,6.706-5.524c4.32-3.548,8.611-7.134,12.946-10.665
		c4.676-3.81,9.385-7.579,14.086-11.356c3.023-2.429,6.137-4.751,9.073-7.281c5.658-4.874,11.071-10.044,16.874-14.734
		c3.824-3.092,7.905-6.1,12.335-8.136c3.537-1.625,7.753-1.694,11.685-0.08c4.911,2.018,9.839,4.002,14.815,5.847
		c1.059,0.393,2.361,0.125,3.553,0.162c0.001,0-0.093,0.026-0.092,0.026c0.3,0.218,0.6,0.436,0.898,0.653
		c8.101,8.33,16.329,16.541,24.253,25.036c4.815,5.163,8.965,10.949,13.806,16.086c2.073,2.199,5.063,3.607,7.785,5.103
		c3.097,1.703,6.36,3.102,9.551,4.631c0.647,1.334,1.297,2.67,1.952,4.021c-0.346,0.306-0.571,0.684-0.813,0.694
		c-6.681,0.29-13.219-0.172-19.575-2.662c-2.702-1.059-5.737-1.357-8.655-1.754c-4.419-0.601-8.869-0.968-13.299-1.492
		c-0.335-0.04-0.615-0.536-0.922-0.818c3.726-1.859,7.45-3.72,11.175-5.581c0.037-0.061,0.073-0.121,0.11-0.182
		c-0.029,0.068-0.057,0.137-0.085,0.206c-1.188,0.048-2.426-0.106-3.555,0.177c-11.829,2.967-23.602,6.171-35.472,8.965
		c-7.771,1.83-15.68,3.074-23.514,4.646c-0.751,0.151-1.409,0.762-2.11,1.159C398.173,154.206,398.593,154.646,399.013,155.086z
		 M432.831,143.204c-11.595-1.108-22.83,1.053-34.004,3.69c0.057,0.437,0.114,0.875,0.171,1.313
		C410.275,146.539,421.553,144.871,432.831,143.204z"/>
	<path style="fill-rule:evenodd;clip-rule:evenodd;fill:#E0E0E0;" d="M486.835,193.697c-3.939,2.419-7.693,5.236-11.858,7.167
		c-7.119,3.302-14.472,6.111-21.776,9.003c-3.541,1.4-7.171,2.59-10.801,3.748c-5.884,1.876-11.741,3.889-17.725,5.384
		c-4.538,1.134-9.285,1.405-13.887,2.323c-5.581,1.113-11.105,2.505-16.657,3.763c-0.421,0.095-0.864,0.111-1.298,0.124
		c-14.63,0.442-29.316,1.824-43.87,0.965c-8.84-0.522-17.672-0.565-26.501-0.912c-1.21-0.047-2.441,0.525-3.664,0.804
		c-0.51,0.117-1.07,0.411-1.527,0.297c-10.611-2.628-21.462-1.478-32.036-0.748c-6.559,0.452-13.263,1.415-19.654,0.641
		c-7.343-0.889-14.619-0.793-21.924-1.145c-0.691-0.033-1.316-1.433-1.972-2.198c1.4-0.569,2.771-1.231,4.206-1.692
		c6.766-2.171,13.694-2.324,20.704-1.664c1.066,0.1,2.303-0.248,3.233-0.784c0.337-0.193,0.35-1.937-0.071-2.302
		c-2.906-2.52-5.645-5.569-9.042-7.117c-6.968-3.174-18.31,1.425-23.092,9.3c-0.547,0.901,0.583,2.821,0.935,4.269
		c-1.149,0.255-2.397,0.928-3.429,0.685c-2.84-0.671-5.635-1.605-8.365-2.654c-5.021-1.928-9.985-4.007-14.968-6.038
		c-0.576-0.234-1.096-0.767-1.672-0.817c-5.226-0.46-8.742-3.989-12.615-6.893c-0.329-0.247-0.798-0.306-1.201-0.451
		c0.488-1.659,0.976-3.318,1.438-4.888c12.504,0.435,24.808,0.83,37.108,1.303c7.474,0.288,14.943,1.008,22.412,0.978
		c11.947-0.047,23.891-0.546,35.836-0.873c27.581-0.754,55.182-1.1,82.736-2.417c20.779-0.994,41.543-2.823,62.229-5.068
		c14.149-1.535,28.147-4.451,42.223-6.693C484.262,188.464,486.226,188.708,486.835,193.697z M364.854,209.479
		c-6.337,0.583-11.782,4.583-17.624,7.499c-0.81,0.404-0.709,2.631-1.029,4.014c1.267,0.292,2.627,1.03,3.78,0.787
		c2.615-0.553,5.083-2.102,7.691-2.33c7.174-0.628,14.356-0.367,21.292,1.94c2.005,0.667,3.916,1.099,5.08-1.192
		c1.262-2.481-0.528-3.901-2.226-5.09C376.889,211.651,371.283,210.092,364.854,209.479z"/>
	<path style="fill-rule:evenodd;clip-rule:evenodd;fill:#E0E0E0;" d="M172.437,313.592c2.602,2.717,3.54,6.134,3.814,9.72
		c0.533,6.976,1.071,13.96,1.29,20.951c0.219,6.961,0.048,13.935,0.048,20.891c4.725,0.343,6.657,3.151,5.771,8.068
		c-0.286,1.589-0.528,3.214-0.531,4.823c-0.026,16.894-0.194,33.792,0.123,50.681c0.106,5.645,1.256,11.312,2.352,16.885
		c1.349,6.861,3.1,13.646,4.767,20.441c0.463,1.886,1.355,3.663,1.866,5.54c2.698,9.905,5.24,19.854,8.049,29.728
		c0.971,3.409,2.542,6.649,3.862,9.958c3.611,9.041,7.16,18.107,10.883,27.103c2.024,4.891,5.114,9.012,9.492,12.167
		c4.462,3.217,8.765,6.654,13.137,9.995c-2.605,1.896-4.505,1.016-7.049-0.789c-14.262-10.116-21.956-24.641-26.896-40.654
		c-7.145-23.16-13.995-46.44-19.971-69.924c-4.763-18.72-6.622-37.973-6.546-57.356c0.018-4.463-0.256-8.935-0.637-13.383
		c-0.08-0.933-1.225-1.774-1.878-2.658c-0.68,0.856-1.372,1.703-2.025,2.579c-0.112,0.149-0.096,0.428-0.074,0.641
		c0.67,6.381-2.952,11.041-6.23,15.903c-7.976,11.826-17.214,22.458-28.58,30.976c-2.484-18.191-4.975-36.437-7.466-54.683
		c0.585-0.569,1.723-1.198,1.669-1.698c-0.46-4.24,2.16-6.798,4.726-9.507c4.071-4.298,8.56-8.341,11.882-13.173
		c4.532-6.59,8.214-13.773,12.107-20.789c2.627-4.734,4.96-9.631,7.503-14.413c0.304-0.57,1.104-0.875,1.675-1.304
		c0,6.51,0,13.02,0,19.529c0.318,0.021,0.637,0.042,0.956,0.064C171.161,324.465,171.799,319.029,172.437,313.592z"/>
	<path style="fill-rule:evenodd;clip-rule:evenodd;fill:#474B7D;" d="M239.796,108.712c0.176,0.272,0.288,0.657,0.538,0.801
		c5.651,3.256,6.025,9.07,7.46,14.545c0.701,2.672,2.513,5.332,4.494,7.331c4.058,4.096,7.283,9.028,12.931,11.601
		c3.608,1.644,6.388,5.019,9.876,7.037c4.675,2.704,9.675,4.846,14.718,7.318c-1.469,0.336-3.05,0.651-4.605,1.064
		c-4.683,1.246-9.32,2.679-14.042,3.748c-3.324,0.752-6.742,1.159-10.14,1.489c-5.649,0.548-11.538,0.09-16.917,1.557
		c-6.701,1.827-13.795,0.423-20.429,3.92c-3.251,1.713-8.396-0.147-12.682-0.428c-0.958-0.063-1.907-0.427-2.856-0.414
		c-7.294,0.099-14.561-0.547-21.703,2.349c-3.63,1.472-8.004,1.154-12.054,1.511c-0.877,0.077-1.804-0.425-2.708-0.661
		c3.482-2.187,6.975-4.356,10.443-6.563c3.768-2.396,6.971-5.108,9.311-9.227c6.53-11.495,16.09-20.482,26-29.002
		C224.681,120.458,232.327,114.688,239.796,108.712z M270.947,152.895c-0.018-0.319-0.036-0.639-0.054-0.958
		c-9.592-0.663-19.18-1.388-28.776-1.97c-8.016-0.486-16.041-0.859-24.067-1.135c-1.199-0.041-2.5,0.592-3.604,1.191
		c-0.449,0.244-0.495,1.229-0.724,1.878c0.566,0.188,1.127,0.519,1.701,0.544c8.323,0.362,16.645,0.79,24.972,0.984
		c8.625,0.201,17.254,0.206,25.881,0.198C267.834,153.627,269.391,153.152,270.947,152.895z M235.961,159.068
		c-0.064-0.137-0.128-0.272-0.192-0.408c-3.212-0.437-6.413-1.042-9.64-1.273c-5.737-0.412-11.488-0.663-17.238-0.805
		c-0.843-0.021-1.71,0.928-2.566,1.429c0.763,0.578,1.521,1.649,2.29,1.656c8.298,0.074,16.599-0.004,24.898-0.088
		C234.331,159.571,235.145,159.246,235.961,159.068z"/>
	<path style="fill-rule:evenodd;clip-rule:evenodd;fill:#E0E0E0;" d="M493.28,499.09c-8.924-2.104-13.768-9.578-20.05-15.18
		c-6.412-5.716-11.548-12.349-15.001-20.224c-2.81-6.407-5.86-12.658-5.772-20.035c0.08-6.802-0.709-13.617-1.202-20.421
		c-0.324-4.478-2.203-8.411-5.203-11.623c-3.887-4.16-5.387-9.261-6.565-14.558c-1.075-4.827-2.634-9.637-2.938-14.519
		c-0.314-5.015,0.467-10.132,1.157-15.151c0.148-1.077,1.963-1.925,3.009-2.878c0.407,0.112,0.816,0.224,1.224,0.337
		c0.28,2.705,0.562,5.41,0.841,8.115c-0.68,6.347,5.977,11.673,13.04,9.997c0,1.415,0.005,2.755-0.001,4.096
		c-0.044,11.549-0.277,23.18,3.405,34.281c1.648,4.967,3.935,10.021,7.106,14.129c9.675,12.522,20.998,11.973,30.214-1.426
		c0.791,4.123,1.491,7.842,2.219,11.557c0.502,2.56,0.757,5.212,1.612,7.65c3.601,10.256-0.193,19.934-2.265,29.69
		C496.945,488.41,494.919,493.709,493.28,499.09z"/>
	<path style="fill-rule:evenodd;clip-rule:evenodd;fill:#FCFCFC;" d="M169.567,310.31c-0.57,0.428-1.371,0.733-1.675,1.304
		c-2.543,4.782-4.876,9.679-7.503,14.413c-3.893,7.015-7.575,14.199-12.107,20.789c-3.323,4.832-7.812,8.875-11.882,13.173
		c-2.565,2.709-5.186,5.267-4.726,9.507c0.054,0.5-1.083,1.129-1.669,1.698c-2.171-12.936-3.74-26.006-8.584-38.461
		c9.355-1.414,16.422-6.937,22.817-13.172c9.008-8.784,17.542-18.053,25.329-26.129C169.567,297.976,169.567,304.143,169.567,310.31
		z"/>
	<path style="fill-rule:evenodd;clip-rule:evenodd;fill:#F8D3D6;" d="M73.486,433.366c-3.786-0.194-7.573-0.389-11.495-0.589
		c-0.149,0.745-0.33,1.648-0.51,2.55c-0.213-0.019-0.427-0.036-0.64-0.055c0-0.925,0-1.849,0-2.743
		c-2.921-1.406-6.003-2.703-8.897-4.332c-3.486-1.961-5.551-5.116-5.135-9.14c0.451-4.363,2.978-7.398,7.067-9.383
		c12.774-6.201,26.1-5.85,39.581-3.587c5.979,1.004,10.963,6.441,10.908,12.422c-0.021,2.293-1.613,4.929-3.231,6.749
		c-1.581,1.778-4.109,2.713-6.221,4.019c0.22-0.607,0.336-1.282,0.677-1.812c2.35-3.649,2.142-7.463,0.403-11.152
		c-3.673-7.8-17.248-11.846-24.808-7.538c-2.254,1.284-2.798,4.418-0.688,5.962c2.1,1.537,2.324,3.415,2.382,5.666
		C72.99,424.725,73.273,429.044,73.486,433.366z"/>
	<path style="fill-rule:evenodd;clip-rule:evenodd;fill:#DDBCBE;" d="M73.486,433.366c-0.212-4.321-0.496-8.641-0.608-12.964
		c-0.058-2.251-0.282-4.128-2.382-5.666c-2.111-1.544-1.567-4.678,0.688-5.962c7.56-4.308,21.134-0.262,24.808,7.538
		c1.738,3.689,1.946,7.503-0.403,11.152c-0.341,0.529-0.457,1.204-0.677,1.812c-6.484,1.42-12.967,2.841-19.451,4.262
		c-0.439,0.045-0.879,0.091-1.319,0.136C73.922,433.571,73.704,433.468,73.486,433.366z"/>
	<path style="fill-rule:evenodd;clip-rule:evenodd;fill:#C7838A;" d="M62.52,341.043c-5.127,2.179-6.031,7.229-6.509,11.585
		c-1.042,9.51-1.414,19.133-1.387,28.708c0.019,6.623,1.161,13.243,1.801,19.864c-2.451,1.099-4.903,2.198-7.73,3.466
		c-0.686-8.348-1.568-16.513-1.95-24.7c-0.221-4.728,0.853-9.531,0.49-14.235c-0.755-9.794,2.703-18.44,6.429-27.073
		c1.573-3.646,2.348-3.739,5.371-1.026C60.244,338.716,61.361,339.903,62.52,341.043z"/>
	<path style="fill-rule:evenodd;clip-rule:evenodd;fill:#DCAC78;" d="M447.911,585.603c4.335-6.579,6.063-13.819,5.316-21.962
		c1.844,0.188,3.49,0.354,5.308,0.539c-0.666,7.347,1.131,14.097,3.703,20.732c2.247,5.797,6.324,9.477,12.218,11.254
		c0.67,0.202,1.329,0.439,2.145,0.711c-4.903,3.045-9.536,5.922-14.169,8.8c-2.359-3.037-4.653-6.128-7.096-9.098
		C452.514,593.147,449.139,590.109,447.911,585.603z"/>
	<path style="fill-rule:evenodd;clip-rule:evenodd;fill:#DDAD79;" d="M223.369,584.939c5.354-4.672,10.244-9.623,12.253-16.816
		c0.281-1.008,2.506-1.473,4.269-2.426c-0.275,3.577-0.596,6.673-0.735,9.776c-0.283,6.285-0.388,12.58-0.775,18.858
		c-0.063,1.024-0.983,2.5-1.88,2.875c-2.969,1.243-6.108,2.078-9.181,3.069c-3.023-4.197-6.108-8.371-3.936-14.038
		C223.527,585.862,223.38,585.374,223.369,584.939z"/>
	<path style="fill-rule:evenodd;clip-rule:evenodd;fill:#C7838A;" d="M63.662,439.384c1.114,1.044,2.054,2.472,3.371,3.067
		c6.266,2.833,11.451,6.474,12.424,13.988c0.083,0.64,0.794,1.197,1.213,1.794c-4.225,0.25-8.452,0.713-12.676,0.696
		c-5.003-0.019-6.935-4.329-8.766-7.781c-2.308-4.351-3.565-9.261-5.404-14.279c2.718,0.573,4.972,1.048,7.225,1.523
		c0.221,0.042,0.442,0.084,0.663,0.126C62.362,438.808,63.012,439.096,63.662,439.384z"/>
	<path style="fill-rule:evenodd;clip-rule:evenodd;fill:#6F4044;" d="M76.782,327.983c7.895-2.829,15.967-2.775,24.393-1.981
		c-0.707,4.362-2.49,7.64-5.844,9.451c-4.058,2.191-8.463,3.739-12.717,5.565c-2.532-0.852-2.048-3.003-1.874-4.813
		c0.265-2.752-0.911-4.626-3.3-5.5C75.457,329.98,76.389,329.028,76.782,327.983z"/>
	<path style="fill-rule:evenodd;clip-rule:evenodd;fill:#F8C288;" d="M223.369,584.939c0.012,0.435,0.159,0.923,0.015,1.299
		c-2.172,5.667,0.913,9.841,3.936,14.038c-7.104,0.984-14.206,1.968-21.31,2.952c-0.098-0.091-0.197-0.181-0.296-0.27
		c1.382-3.355-0.139-5.773-3.139-8.016C210.613,593.118,217.196,589.437,223.369,584.939z"/>
	<path style="fill-rule:evenodd;clip-rule:evenodd;fill:#F9C389;" d="M447.911,585.603c1.228,4.506,4.603,7.544,7.425,10.977
		c2.442,2.97,4.736,6.061,7.096,9.098c-1.288,1.693-2.575,3.388-4.059,5.34c-5.55-8.392-13.611-13.28-21.918-16.494
		C440.117,591.671,444.015,588.637,447.911,585.603z"/>
	<path style="fill-rule:evenodd;clip-rule:evenodd;fill:#7E484E;" d="M76.782,327.983c-0.394,1.044-1.326,1.997,0.658,2.722
		c2.39,0.874,3.565,2.748,3.3,5.5c-0.174,1.809-0.658,3.961,1.874,4.813c-7.86,0.023-14.978-1.775-20.906-9.05
		C67.023,330.563,71.903,329.273,76.782,327.983z"/>
	<path style="fill-rule:evenodd;clip-rule:evenodd;fill:#B2737B;" d="M86.713,319.984c-2.737,0.354-5.513,0.711-8.974,1.158
		c0.975-3.023,1.664-5.929,2.893-8.584c0.47-1.016,2.175-1.461,3.316-2.166c0.543,0.978,1.321,1.897,1.582,2.946
		C86.066,315.496,86.328,317.722,86.713,319.984z"/>
	<path style="fill-rule:evenodd;clip-rule:evenodd;fill:#090909;" d="M74.141,433.673c0.439-0.045,0.879-0.091,1.319-0.136
		c-0.03,1.176-0.047,2.352-0.105,3.525c-0.009,0.177-0.209,0.345-0.835,1.308C74.355,436.336,74.248,435.004,74.141,433.673z"/>
	<path style="fill-rule:evenodd;clip-rule:evenodd;fill:#090909;" d="M61.712,438.519c-0.221-0.042-0.442-0.084-0.663-0.126
		c0.134-0.218,0.269-0.437,0.403-0.655C61.539,437.998,61.625,438.258,61.712,438.519z"/>
	<path style="fill-rule:evenodd;clip-rule:evenodd;fill:#090909;" d="M75.461,439.792c-0.22,0.009-0.441,0.018-0.662,0.026
		c0.105-0.257,0.21-0.514,0.316-0.771C75.23,439.296,75.346,439.544,75.461,439.792z"/>
	<path style="fill-rule:evenodd;clip-rule:evenodd;fill:#51558E;" d="M437.12,95.532c-0.299-0.217-0.599-0.436-0.898-0.653
		C436.521,95.097,436.82,95.315,437.12,95.532z"/>
	<path style="fill-rule:evenodd;clip-rule:evenodd;fill:#090909;" d="M77.979,439.561l-0.234,0.146l-0.271-0.049
		C77.607,439.44,77.776,439.408,77.979,439.561z"/>
	<path style="fill-rule:evenodd;clip-rule:evenodd;fill:#F8C288;" d="M206.01,603.228c-0.226,0.062-0.453,0.123-0.678,0.185
		c0.127-0.151,0.255-0.303,0.382-0.454C205.813,603.047,205.912,603.137,206.01,603.228z"/>
	<path style="fill-rule:evenodd;clip-rule:evenodd;fill:#B28351;" d="M75.452,517.252c5.335,0.057,10.67,0.094,16.005,0.176
		c10.396,0.16,20.057-3.641,30.051-5.634c0.898-0.179,1.575-1.467,2.355-2.24c-0.856-0.705-1.78-2.093-2.559-2.015
		c-10.532,1.046-19.964-4.479-30.222-4.926c-1.615-0.07-3.222-0.304-4.993-0.478c0-1.574,0-3.162,0-5.506
		c5.664,0.406,11.217,0.31,16.569,1.3c9.387,1.736,18.587,4.516,27.993,6.103c4.622,0.779,6.055,2.724,6.56,7.063
		c0.688,5.907,2.226,11.712,3.344,17.572c0.612,3.205-0.926,5.145-4.017,5.465c-7.679,0.798-15.388,1.309-23.071,2.075
		c-4.97,0.496-9.926,1.17-14.865,1.915c-1.316,0.198-2.55,0.947-3.875,2.294c1,0.373,1.984,1.015,3.002,1.072
		c4.995,0.285,10.002,0.636,14.999,0.545c6.285-0.115,12.563-0.635,19.162-0.998c-1.138,6.095-2.36,12.119-3.373,18.179
		c-1.523,9.114-3.149,18.222-4.275,27.389c-1.267,10.324-7.27,15.482-17.042,17.313c-10.991,2.06-22.013,2.872-33.146,1.547
		c-0.638-0.076-1.251-0.361-1.876-0.55c0.436-2.079,1.133-4.142,1.263-6.239c0.546-8.834,0.926-17.679,1.361-26.52
		c0.064-1.303-0.069-2.639,0.168-3.906c0.745-3.963,2.448-7.931,2.3-11.84C76.774,543.356,79.47,530.133,75.452,517.252z"/>
	<path style="fill-rule:evenodd;clip-rule:evenodd;fill:#C9945C;" d="M75.452,517.252c4.018,12.881,1.322,26.104,1.818,39.157
		c0.148,3.909-1.555,7.877-2.3,11.84c-0.238,1.268-0.104,2.604-0.168,3.906c-0.435,8.841-0.814,17.686-1.361,26.52
		c-0.13,2.098-0.827,4.16-1.263,6.239c-3.824-0.753-7.649-1.494-11.47-2.261c-4.884-0.981-9.741-2.115-14.65-2.942
		c-5.659-0.954-10.389-5.029-11.022-10.87c-1.384-12.764-2.371-25.572-3.475-38.365c-0.269-3.113-0.362-6.24-0.545-9.507
		c7.938,1.576,15.615,1.774,23.294,0.667c0.051-0.341,0.103-0.683,0.154-1.024c-5.622-1.47-11.251-2.907-16.861-4.42
		c-3.338-0.899-6.675-1.825-9.954-2.913c-2.098-0.695-3.039-2.228-2.689-4.578c0.993-6.67,1.85-13.361,2.854-20.029
		c0.091-0.602,0.742-1.349,1.322-1.611c10.479-4.75,20.856-9.842,32.531-11.04c3.018-0.309,6.063-0.359,9.097-0.521
		c2.147-0.116,4.295-0.22,6.677-0.34c0,1.89,0,4.003,0,6.389c-13.154-0.698-26.058,0.995-39.154,6.535
		c2.641,1.2,4.786,2.642,7.135,3.159c8.8,1.943,17.667,3.586,26.509,5.338C73.103,516.812,74.278,517.029,75.452,517.252z"/>
	<path style="fill-rule:evenodd;clip-rule:evenodd;fill:#433222;" d="M104.506,510.926c-16.67,2.395-33.241,1.302-49.767-1.348
		c-0.081-0.343-0.161-0.687-0.241-1.029c0.639-0.39,1.239-1.021,1.923-1.132c5.868-0.944,11.759-1.749,17.627-2.699
		c2.184-0.354,3.607-0.235,3.482,2.597c-0.037,0.849,0.968,2.467,1.528,2.481c1.641,0.041,4.114-0.005,4.776-1.003
		c1.329-2.004,2.757-1.948,4.612-1.711c4.598,0.587,9.207,1.085,13.798,1.72c0.795,0.109,1.521,0.716,2.279,1.093
		C104.518,510.239,104.512,510.582,104.506,510.926z"/>
	<path style="fill-rule:evenodd;clip-rule:evenodd;fill:#F5EF8C;" d="M79.379,485.874c-2.741-1.801-5.483-3.602-8.225-5.403
		c0.094-0.406,0.188-0.813,0.281-1.221c1.39-0.195,2.796-0.629,4.167-0.538c2.715,0.181,3.962-0.933,4.396-3.597
		c0.48-2.951,1.494-3.353,3.552-1.813c-0.182,0.355-0.499,0.702-0.523,1.068c-0.218,3.194-0.382,6.393-0.563,9.59
		C81.437,484.598,80.408,485.237,79.379,485.874z"/>
	<path style="fill-rule:evenodd;clip-rule:evenodd;fill:#DAD47B;" d="M82.465,483.96c0.181-3.197,0.345-6.396,0.563-9.59
		c0.024-0.366,0.341-0.713,0.523-1.068c1.225,3.508,3.705,4.457,7.029,3.111c1.082,4.383-0.934,7.04-7.25,10.064
		C83.042,485.638,82.753,484.799,82.465,483.96z"/>
	<path style="fill-rule:evenodd;clip-rule:evenodd;fill:#42623A;" d="M82.465,483.96c0.288,0.839,0.577,1.678,0.865,2.518
		c-0.469,3.03-0.938,6.06-1.407,9.091c-0.334-0.019-0.669-0.037-1.004-0.056c-0.07-2.178-0.009-4.37-0.264-6.526
		c-0.127-1.073-0.833-2.078-1.276-3.113C80.408,485.237,81.437,484.598,82.465,483.96z"/>
	<path style="fill-rule:evenodd;clip-rule:evenodd;fill:#294227;" d="M80.919,495.513c0.335,0.019,0.669,0.037,1.004,0.056
		c0,3.614,0,7.229,0,10.844c-0.334,0.009-0.669,0.018-1.003,0.025C80.919,502.796,80.919,499.156,80.919,495.513z"/>
	<path style="fill-rule:evenodd;clip-rule:evenodd;fill:#060606;" d="M289.947,234.278c5.856,0.651,10.713,0.505,13.937,5.182
		c1.733,2.513,1.659,4.625-0.117,6.799c-1.094,1.34-2.259,2.766-3.699,3.657c-7.368,4.556-14.795,9.021-22.3,13.345
		c-1.647,0.948-3.665,1.417-5.573,1.713c-4.042,0.628-6.945-2.387-5.422-6.112c2.662-6.514,5.805-12.849,9.087-19.079
		c0.753-1.43,2.756-2.539,4.418-3.083C283.76,235.56,287.397,234.893,289.947,234.278z M276.373,253.346
		c-0.854,1.435-1.708,2.87-2.563,4.305c9.97-3.596,18.982-8.428,26.803-16.904c-2.948-0.171-5.047-0.292-7.146-0.414
		c-3.297,0.456-6.652,0.679-9.865,1.475c-1.363,0.338-2.852,1.648-3.542,2.919C278.576,247.462,277.572,250.458,276.373,253.346z"/>
	<path style="fill-rule:evenodd;clip-rule:evenodd;fill:#050505;" d="M238.557,222.924c-0.353-1.447-1.482-3.367-0.935-4.269
		c4.782-7.875,16.124-12.474,23.092-9.3c3.397,1.548,6.136,4.597,9.042,7.117c0.42,0.366,0.408,2.109,0.071,2.302
		c-0.93,0.536-2.167,0.884-3.233,0.784c-7.01-0.661-13.938-0.507-20.704,1.664c-1.435,0.46-2.806,1.123-4.206,1.692
		C240.642,222.917,239.6,222.921,238.557,222.924z"/>
	<path style="fill-rule:evenodd;clip-rule:evenodd;fill:#030303;" d="M399.013,155.086c-0.42-0.44-0.84-0.88-1.26-1.32
		c0.701-0.397,1.359-1.008,2.11-1.159c7.834-1.572,15.742-2.816,23.514-4.646c11.87-2.794,23.643-5.998,35.472-8.965
		c1.129-0.283,2.367-0.128,3.555-0.177l-0.025-0.024c-3.725,1.861-7.449,3.722-11.175,5.581
		c-14.267,3.344-28.517,6.771-42.817,9.968C405.358,155.022,402.142,154.861,399.013,155.086z"/>
	<path style="fill-rule:evenodd;clip-rule:evenodd;fill:#030303;" d="M432.831,143.204c-11.278,1.667-22.556,3.335-33.833,5.002
		c-0.057-0.437-0.114-0.875-0.171-1.313C410.001,144.256,421.236,142.096,432.831,143.204z"/>
	<path style="fill-rule:evenodd;clip-rule:evenodd;fill:#030303;" d="M462.403,138.82c0.028-0.068,0.056-0.137,0.085-0.206
		c-0.037,0.061-0.073,0.121-0.11,0.182L462.403,138.82z"/>
	<path style="fill-rule:evenodd;clip-rule:evenodd;fill:#050505;" d="M364.854,209.479c6.43,0.613,12.035,2.172,16.965,5.627
		c1.697,1.189,3.487,2.609,2.226,5.09c-1.164,2.292-3.075,1.859-5.08,1.192c-6.936-2.307-14.118-2.569-21.292-1.94
		c-2.608,0.229-5.076,1.777-7.691,2.33c-1.153,0.244-2.514-0.495-3.78-0.787c0.32-1.383,0.22-3.61,1.029-4.014
		C353.071,214.062,358.517,210.062,364.854,209.479z"/>
	<path style="fill-rule:evenodd;clip-rule:evenodd;fill:#030303;" d="M270.947,152.895c-1.557,0.257-3.113,0.732-4.671,0.733
		c-8.627,0.008-17.256,0.003-25.881-0.198c-8.328-0.194-16.649-0.623-24.972-0.984c-0.574-0.025-1.135-0.355-1.701-0.544
		c0.229-0.648,0.275-1.634,0.724-1.878c1.104-0.599,2.405-1.232,3.604-1.191c8.026,0.276,16.051,0.649,24.067,1.135
		c9.596,0.582,19.184,1.307,28.776,1.97C270.911,152.256,270.93,152.576,270.947,152.895z"/>
	<path style="fill-rule:evenodd;clip-rule:evenodd;fill:#030303;" d="M235.961,159.068c-0.816,0.178-1.63,0.503-2.448,0.511
		c-8.299,0.084-16.6,0.163-24.898,0.088c-0.769-0.007-1.527-1.079-2.29-1.656c0.856-0.5,1.723-1.45,2.566-1.429
		c5.75,0.142,11.501,0.393,17.238,0.805c3.227,0.231,6.428,0.836,9.64,1.273C235.833,158.796,235.897,158.931,235.961,159.068z"/>
	<path style="fill-rule:evenodd;clip-rule:evenodd;fill:#DCAC78;" d="M293.466,240.333c2.099,0.122,4.198,0.243,7.146,0.414
		c-7.821,8.476-16.833,13.308-26.803,16.904c0.855-1.435,1.709-2.87,2.563-4.305c5.667-4.125,11.336-8.249,16.991-12.392
		C293.484,240.867,293.436,240.546,293.466,240.333z"/>
	<path style="fill-rule:evenodd;clip-rule:evenodd;fill:#F8C288;" d="M293.466,240.333c-0.03,0.213,0.019,0.533-0.103,0.622
		c-5.654,4.143-11.324,8.267-16.991,12.392c1.2-2.889,2.203-5.884,3.687-8.619c0.689-1.271,2.178-2.582,3.542-2.919
		C286.814,241.012,290.168,240.789,293.466,240.333z"/>
</g>
</svg>
